<?xml version="1.0" encoding="UTF-8" standalone="no"?>
<svg
   xmlns:dc="http://purl.org/dc/elements/1.1/"
   xmlns:cc="http://creativecommons.org/ns#"
   xmlns:rdf="http://www.w3.org/1999/02/22-rdf-syntax-ns#"
   xmlns:svg="http://www.w3.org/2000/svg"
   xmlns="http://www.w3.org/2000/svg"
   xmlns:sodipodi="http://sodipodi.sourceforge.net/DTD/sodipodi-0.dtd"
   xmlns:inkscape="http://www.inkscape.org/namespaces/inkscape"
   version="1.1"
   id="svg2"
   xml:space="preserve"
   width="879.58667"
   height="879.58667"
   viewBox="0 0 879.58667 879.58667"
   sodipodi:docname="winter-forest-publicdomainvectors.org.svg"
   inkscape:version="1.0.1 (3bc2e813f5, 2020-09-07)"><metadata
     id="metadata8"><rdf:RDF><cc:Work
         rdf:about=""><dc:format>image/svg+xml</dc:format><dc:type
           rdf:resource="http://purl.org/dc/dcmitype/StillImage" /></cc:Work></rdf:RDF></metadata><defs
     id="defs6" /><sodipodi:namedview
     pagecolor="#ffffff"
     bordercolor="#666666"
     borderopacity="1"
     objecttolerance="10"
     gridtolerance="10"
     guidetolerance="10"
     inkscape:pageopacity="0"
     inkscape:pageshadow="2"
     inkscape:window-width="2560"
     inkscape:window-height="1017"
     id="namedview4"
     inkscape:document-rotation="0"
     showgrid="false"
     inkscape:zoom="0.34166091"
     inkscape:cx="92.903231"
     inkscape:cy="476.86923"
     inkscape:window-x="1912"
     inkscape:window-y="-8"
     inkscape:window-maximized="1"
     inkscape:current-layer="g12" /><g
     id="g10"
     inkscape:groupmode="layer"
     inkscape:label="ink_ext_XXXXXX"
     transform="matrix(1.3333333,0,0,-1.3333333,0,879.58667)"><g
       id="g12"
       transform="scale(0.1)"><path
         d="m 2528.2,250.371 c 0,5.988 -0.87,11.16 -2.62,15.41 -1.74,4.289 -4.14,7.59 -7.3,9.938 -3.08,2.281 -6.5,3.429 -10.29,3.429 -5.95,0 -11.01,-2.488 -15.15,-7.378 -4.08,-5 -6.18,-12.18 -6.18,-21.758 0,-9.063 2.1,-16.032 6.14,-21.012 4.11,-5.012 9.15,-7.559 15.19,-7.559 3.62,0 6.98,1.098 10.07,3.321 3,2.199 5.49,5.468 7.35,9.808 1.88,4.418 2.79,9.649 2.79,15.801 z m -42.53,33.027 v -2.757 c 4.07,5.23 8.32,9.14 12.7,11.589 4.41,2.489 9.41,3.7 14.97,3.7 6.67,0 12.8,-1.821 18.45,-5.391 5.6,-3.59 10.06,-8.828 13.32,-15.777 3.24,-6.883 4.91,-15.09 4.91,-24.543 0,-6.938 -0.99,-13.41 -2.86,-19.16 -1.84,-5.868 -4.45,-10.809 -7.73,-14.739 -3.3,-3.992 -7.19,-7.031 -11.67,-9.109 -4.47,-2.18 -9.3,-3.191 -14.42,-3.191 -6.22,0 -11.42,1.261 -15.63,3.871 -4.26,2.601 -8.25,6.379 -12.04,11.41 V 185.32 c 0,-9.961 -3.49,-14.91 -10.43,-14.91 -4.07,0 -6.79,1.238 -8.08,3.801 -1.35,2.598 -1.98,6.359 -1.98,11.289 v 97.75 c 0,4.281 0.86,7.559 2.69,9.66 1.82,2.102 4.29,3.219 7.37,3.219 3.11,0 5.6,-1.117 7.52,-3.309 1.93,-2.199 2.91,-5.359 2.91,-9.422"
         style="fill:#ffffff;fill-opacity:1;fill-rule:nonzero;stroke:none"
         id="path64" /><path
         d="m 2623.82,216.789 v 2.883 c -2.64,-3.434 -5.36,-6.313 -8.23,-8.613 -2.85,-2.348 -6,-4.039 -9.34,-5.2 -3.45,-1.14 -7.3,-1.687 -11.63,-1.687 -5.24,0 -9.93,1.148 -14.1,3.387 -4.19,2.261 -7.39,5.402 -9.68,9.382 -2.72,4.809 -4.05,11.719 -4.05,20.7 v 44.879 c 0,4.562 0.99,7.929 2.96,10.179 1.97,2.199 4.52,3.34 7.76,3.34 3.32,0 5.96,-1.141 7.97,-3.43 1.99,-2.23 3,-5.621 3,-10.089 v -36.258 c 0,-5.231 0.43,-9.653 1.26,-13.18 0.86,-3.613 2.36,-6.41 4.64,-8.422 2.12,-2 5.12,-2.98 8.87,-2.98 3.71,0 7.18,1.129 10.33,3.39 3.28,2.239 5.64,5.192 7.13,8.821 1.23,3.218 1.82,10.257 1.82,21.121 v 27.508 c 0,4.468 1.02,7.859 3.02,10.089 1.96,2.289 4.62,3.43 7.86,3.43 3.22,0 5.82,-1.141 7.8,-3.34 1.92,-2.25 2.91,-5.617 2.91,-10.179 v -65.579 c 0,-4.332 -0.91,-7.562 -2.84,-9.691 -1.86,-2.18 -4.26,-3.23 -7.26,-3.23 -2.95,0 -5.4,1.14 -7.31,3.32 -1.95,2.281 -2.89,5.39 -2.89,9.449"
         style="fill:#ffffff;fill-opacity:1;fill-rule:nonzero;stroke:none"
         id="path66" /><path
         d="m 2686.79,249.512 c 0,-9.043 1.9,-15.942 5.86,-20.774 3.98,-4.808 9.14,-7.297 15.55,-7.297 5.48,0 10.17,2.489 14.11,7.438 4,4.973 5.96,12.031 5.96,21.25 0,6.07 -0.84,11.191 -2.48,15.48 -1.66,4.34 -4,7.661 -6.97,9.993 -3.09,2.359 -6.58,3.546 -10.62,3.546 -4.17,0 -7.8,-1.187 -11.02,-3.546 -3.28,-2.332 -5.8,-5.731 -7.66,-10.211 -1.83,-4.43 -2.73,-9.711 -2.73,-15.879 z m -1.08,67.297 v -34.59 c 4.05,4.453 8.23,7.801 12.44,10.203 4.26,2.359 9.55,3.508 15.77,3.508 7.22,0 13.51,-1.821 18.96,-5.309 5.43,-3.633 9.65,-8.801 12.66,-15.539 3,-6.773 4.49,-14.812 4.49,-24.121 0,-6.852 -0.82,-13.172 -2.49,-18.871 -1.69,-5.719 -4.09,-10.688 -7.28,-14.91 -3.19,-4.168 -7.05,-7.399 -11.55,-9.758 -4.58,-2.262 -9.58,-3.402 -15.03,-3.402 -3.29,0 -6.45,0.402 -9.41,1.242 -2.95,0.808 -5.49,1.867 -7.54,3.277 -2.04,1.281 -3.81,2.731 -5.28,4.152 -1.45,1.481 -3.33,3.59 -5.74,6.469 v -2.219 c 0,-4.289 -1.01,-7.48 -2.96,-9.691 -1.96,-2.18 -4.46,-3.23 -7.45,-3.23 -3.11,0 -5.51,1.05 -7.37,3.23 -1.83,2.262 -2.72,5.441 -2.72,9.691 v 98.899 c 0,4.57 0.86,8 2.63,10.371 1.82,2.359 4.26,3.539 7.46,3.539 3.3,0 5.9,-1.129 7.68,-3.398 1.81,-2.231 2.73,-5.403 2.73,-9.543"
         style="fill:#ffffff;fill-opacity:1;fill-rule:nonzero;stroke:none"
         id="path68" /><path
         d="m 2765.31,217.781 v 98.18 c 0,4.57 0.98,7.988 2.88,10.309 1.98,2.3 4.59,3.48 7.85,3.48 3.31,0 5.95,-1.129 7.97,-3.48 1.96,-2.239 3.04,-5.711 3.04,-10.309 v -98.18 c 0,-4.621 -1.08,-8.082 -3.09,-10.359 -2.06,-2.262 -4.69,-3.402 -7.92,-3.402 -3.16,0 -5.72,1.179 -7.73,3.539 -2.02,2.402 -3,5.773 -3,10.222"
         style="fill:#ffffff;fill-opacity:1;fill-rule:nonzero;stroke:none"
         id="path70" /><path
         d="m 2831.14,283.16 v -65.379 c 0,-4.57 -1.06,-8 -3.08,-10.32 -2.08,-2.262 -4.73,-3.441 -7.87,-3.441 -3.21,0 -5.77,1.179 -7.77,3.5 -1.98,2.441 -3,5.812 -3,10.261 v 64.739 c 0,4.468 1.02,7.859 3,10.089 2,2.289 4.56,3.43 7.77,3.43 3.16,0 5.79,-1.141 7.87,-3.43 2.02,-2.23 3.08,-5.39 3.08,-9.449 z m -10.76,23.469 c -2.99,0 -5.56,0.922 -7.75,2.91 -2.1,1.93 -3.21,4.723 -3.21,8.231 0,3.179 1.11,5.839 3.32,7.929 2.15,2.082 4.73,3.051 7.64,3.051 2.8,0 5.31,-0.891 7.49,-2.789 2.18,-1.84 3.27,-4.652 3.27,-8.191 0,-3.508 -1.09,-6.231 -3.2,-8.18 -2.11,-1.961 -4.65,-2.961 -7.56,-2.961"
         style="fill:#ffffff;fill-opacity:1;fill-rule:nonzero;stroke:none"
         id="path72" /><path
         d="m 2931.25,232 c 0,-2.789 -0.79,-5.789 -2.36,-8.969 -1.65,-3.242 -4.13,-6.289 -7.46,-9.191 -3.3,-2.899 -7.47,-5.238 -12.47,-6.988 -5.05,-1.821 -10.72,-2.68 -17.01,-2.68 -13.42,0 -23.87,4.098 -31.4,12.219 -7.53,8.168 -11.28,19.07 -11.28,32.789 0,9.269 1.7,17.55 5.12,24.64 3.43,7.09 8.48,12.66 14.95,16.559 6.49,3.891 14.3,5.832 23.37,5.832 5.64,0 10.81,-0.859 15.48,-2.512 4.69,-1.758 8.68,-3.988 11.9,-6.668 3.28,-2.73 5.76,-5.601 7.49,-8.679 1.74,-3.071 2.58,-5.911 2.58,-8.59 0,-2.68 -1.01,-4.961 -2.88,-6.864 -1.98,-1.886 -4.26,-2.828 -7.06,-2.828 -1.81,0 -3.32,0.539 -4.5,1.489 -1.18,0.953 -2.53,2.441 -4.03,4.66 -2.64,4.179 -5.39,7.359 -8.32,9.5 -2.85,2.082 -6.52,3.183 -10.94,3.183 -6.46,0 -11.64,-2.672 -15.54,-7.871 -3.93,-5.293 -5.87,-12.383 -5.87,-21.48 0,-4.242 0.53,-8.199 1.51,-11.762 1.01,-3.59 2.48,-6.578 4.36,-9.129 1.94,-2.519 4.19,-4.43 6.96,-5.691 2.65,-1.34 5.66,-2.008 8.86,-2.008 4.37,0 8.07,1.078 11.2,3.148 3.05,2.141 5.82,5.36 8.19,9.629 1.34,2.602 2.75,4.582 4.3,6.024 1.54,1.468 3.46,2.097 5.68,2.097 2.63,0 4.83,-1 6.56,-3.078 1.74,-2.172 2.61,-4.371 2.61,-6.781"
         style="fill:#ffffff;fill-opacity:1;fill-rule:nonzero;stroke:none"
         id="path74" /><path
         d="m 2967,250.129 c 0,-6.098 0.95,-11.328 2.76,-15.641 1.81,-4.347 4.29,-7.527 7.46,-9.726 3.22,-2.223 6.68,-3.321 10.39,-3.321 3.86,0 7.32,1.059 10.49,3.118 3.15,2.082 5.64,5.281 7.55,9.582 1.88,4.238 2.82,9.609 2.82,15.988 0,6.07 -0.94,11.23 -2.82,15.609 -1.91,4.332 -4.44,7.633 -7.63,9.981 -3.2,2.281 -6.7,3.429 -10.53,3.429 -3.94,0 -7.5,-1.187 -10.63,-3.546 -3.13,-2.332 -5.56,-5.731 -7.26,-10.133 -1.72,-4.43 -2.6,-9.457 -2.6,-15.34 z m 42.65,-33.188 v 2.219 c -2.92,-3.512 -5.79,-6.301 -8.62,-8.48 -2.82,-2.2 -5.88,-3.86 -9.24,-5.008 -3.26,-1.082 -6.9,-1.652 -10.78,-1.652 -5.24,0 -10.07,1.14 -14.44,3.402 -4.43,2.359 -8.29,5.59 -11.46,9.84 -3.24,4.258 -5.73,9.277 -7.4,15.019 -1.67,5.739 -2.5,11.938 -2.5,18.68 0,14.141 3.31,25.23 9.92,33.098 6.68,7.929 15.37,11.871 26.13,11.871 6.27,0 11.56,-1.149 15.86,-3.43 4.26,-2.16 8.46,-5.629 12.53,-10.281 v 33.429 c 0,4.633 0.91,8.153 2.66,10.524 1.8,2.398 4.28,3.578 7.58,3.578 3.27,0 5.79,-1.09 7.61,-3.281 1.78,-2.16 2.69,-5.391 2.69,-9.66 v -99.868 c 0,-4.332 -0.99,-7.562 -2.9,-9.691 -1.93,-2.18 -4.35,-3.23 -7.4,-3.23 -2.91,0 -5.39,1.05 -7.37,3.32 -1.89,2.242 -2.87,5.39 -2.87,9.601"
         style="fill:#ffffff;fill-opacity:1;fill-rule:nonzero;stroke:none"
         id="path76" /><path
         d="m 3111.4,249.988 c 0,9.184 -1.96,16.383 -5.86,21.551 -3.89,5.121 -9.14,7.731 -15.69,7.731 -4.25,0 -7.95,-1.188 -11.25,-3.481 -3.16,-2.328 -5.68,-5.719 -7.42,-10.18 -1.8,-4.437 -2.64,-9.64 -2.64,-15.621 0,-5.918 0.84,-11.078 2.58,-15.5 1.74,-4.429 4.18,-7.816 7.42,-10.168 3.19,-2.32 6.98,-3.511 11.31,-3.511 6.55,0 11.8,2.562 15.69,7.73 3.9,5.16 5.86,12.32 5.86,21.449 z m 21.77,0 c 0,-6.707 -1.02,-12.937 -3.04,-18.707 -2.01,-5.621 -4.92,-10.511 -8.7,-14.609 -3.82,-4.141 -8.4,-7.16 -13.68,-9.422 -5.34,-2.18 -11.31,-3.23 -17.9,-3.23 -6.58,0 -12.44,1.05 -17.75,3.281 -5.23,2.211 -9.77,5.39 -13.63,9.488 -3.82,4.133 -6.74,8.992 -8.73,14.582 -1.98,5.641 -2.97,11.82 -2.97,18.641 0,6.859 1.03,13.136 3.01,18.797 2.04,5.73 4.91,10.582 8.65,14.632 3.81,4.02 8.33,7.141 13.67,9.297 5.37,2.211 11.29,3.301 17.75,3.301 6.59,0 12.52,-1.09 17.9,-3.34 5.32,-2.16 9.9,-5.359 13.71,-9.449 3.82,-4.102 6.73,-8.961 8.71,-14.621 2.02,-5.609 3,-11.867 3,-18.641"
         style="fill:#ffffff;fill-opacity:1;fill-rule:nonzero;stroke:none"
         id="path78" /><path
         d="m 3224.81,268.711 c -1.61,-3.871 -2.4,-10.621 -2.4,-20.352 v -30.07 c 0,-4.738 -1.03,-8.328 -3.12,-10.73 -2.05,-2.36 -4.82,-3.539 -8.2,-3.539 -3.27,0 -5.91,1.179 -7.93,3.539 -2.04,2.402 -3.07,5.992 -3.07,10.73 v 36.109 c 0,5.672 -0.2,10.071 -0.59,13.274 -0.36,3.117 -1.37,5.699 -3.01,7.758 -1.61,2.031 -4.23,3.039 -7.75,3.039 -7.09,0 -11.74,-2.528 -14.03,-7.68 -2.25,-5.051 -3.35,-12.379 -3.35,-21.879 v -30.621 c 0,-4.738 -1.02,-8.328 -3.07,-10.648 -2.05,-2.442 -4.73,-3.621 -8.05,-3.621 -3.32,0 -6.01,1.179 -8.08,3.621 -2.13,2.32 -3.12,5.91 -3.12,10.609 v 64.832 c 0,4.258 0.92,7.5 2.78,9.699 1.91,2.207 4.36,3.348 7.44,3.348 2.96,0 5.44,-1.07 7.46,-3.109 1.95,-2.098 2.94,-4.93 2.94,-8.598 v -2.18 c 3.77,4.746 7.81,8.18 12.06,10.367 4.3,2.231 9.09,3.321 14.31,3.321 5.48,0 10.13,-1.149 14.08,-3.43 3.93,-2.199 7.13,-5.668 9.65,-10.258 3.67,4.629 7.61,8.137 11.79,10.34 4.2,2.258 8.81,3.348 13.87,3.348 6,0 11.07,-1.149 15.36,-3.641 4.31,-2.418 7.49,-5.887 9.63,-10.469 1.86,-4.101 2.8,-10.531 2.8,-19.308 v -44.223 c 0,-4.738 -1.05,-8.328 -3.08,-10.73 -2.13,-2.36 -4.81,-3.539 -8.23,-3.539 -3.28,0 -5.97,1.179 -8.04,3.621 -2.12,2.32 -3.19,5.91 -3.19,10.648 v 38.07 c 0,4.891 -0.17,8.782 -0.56,11.7 -0.41,2.972 -1.49,5.402 -3.23,7.421 -1.72,1.981 -4.41,2.989 -7.96,2.989 -2.84,0 -5.57,-0.899 -8.08,-2.637 -2.65,-1.82 -4.63,-4.152 -6.03,-7.121 v 0"
         style="fill:#ffffff;fill-opacity:1;fill-rule:nonzero;stroke:none"
         id="path80" /><path
         d="m 3347.7,249.551 c -3.24,-1.219 -7.83,-2.531 -13.9,-3.879 -6.08,-1.363 -10.31,-2.352 -12.62,-2.992 -2.32,-0.668 -4.53,-1.891 -6.67,-3.692 -2.12,-1.898 -3.19,-4.5 -3.19,-7.808 0,-3.481 1.27,-6.399 3.75,-8.782 2.48,-2.418 5.76,-3.648 9.76,-3.648 4.3,0 8.3,1.039 11.92,3 3.63,1.941 6.33,4.5 7.97,7.602 1.96,3.398 2.98,9.027 2.98,16.949 z m 1.39,-32.809 c -5.24,-4.254 -10.34,-7.453 -15.21,-9.531 -4.91,-2.18 -10.42,-3.191 -16.49,-3.191 -5.6,0 -10.44,1.14 -14.66,3.402 -4.25,2.277 -7.49,5.437 -9.78,9.367 -2.24,3.902 -3.43,8.16 -3.43,12.793 0,6.168 1.94,11.398 5.69,15.828 3.75,4.34 8.9,7.242 15.44,8.781 1.42,0.321 4.85,1.028 10.29,2.168 5.48,1.223 10.14,2.289 14.07,3.231 3.87,0.949 8.12,2.121 12.69,3.5 -0.31,6.012 -1.46,10.371 -3.46,13.219 -2.04,2.75 -6.3,4.132 -12.69,4.132 -5.52,0 -9.66,-0.781 -12.5,-2.402 -2.77,-1.59 -5.12,-4.027 -7.13,-7.25 -1.99,-3.207 -3.36,-5.289 -4.18,-6.32 -0.86,-1.059 -2.6,-1.5 -5.29,-1.5 -2.48,0 -4.56,0.781 -6.3,2.422 -1.81,1.629 -2.72,3.711 -2.72,6.289 0,3.98 1.37,7.859 4.1,11.57 2.69,3.781 6.9,6.859 12.62,9.332 5.7,2.43 12.85,3.629 21.4,3.629 9.53,0 17.02,-1.199 22.5,-3.512 5.45,-2.32 9.26,-6.027 11.51,-11.148 2.28,-5.102 3.41,-11.821 3.41,-20.231 0,-5.308 0,-9.851 -0.03,-13.539 -0.06,-3.711 -0.06,-7.84 -0.14,-12.39 0,-4.211 0.71,-8.719 2.05,-13.282 1.31,-4.621 2,-7.589 2,-8.898 0,-2.34 -1.05,-4.461 -3.15,-6.359 -2.04,-1.883 -4.42,-2.832 -7.09,-2.832 -2.21,0 -4.37,1.05 -6.63,3.23 -2.12,2.211 -4.47,5.359 -6.89,9.492"
         style="fill:#ffffff;fill-opacity:1;fill-rule:nonzero;stroke:none"
         id="path82" /><path
         d="m 3412.72,283.16 v -65.379 c 0,-4.57 -1.05,-8 -3.09,-10.32 -2.06,-2.262 -4.7,-3.441 -7.85,-3.441 -3.2,0 -5.79,1.179 -7.77,3.5 -2.01,2.441 -2.98,5.812 -2.98,10.261 v 64.739 c 0,4.468 0.98,7.859 2.98,10.089 1.98,2.289 4.57,3.43 7.77,3.43 3.15,0 5.79,-1.141 7.85,-3.43 2.04,-2.23 3.09,-5.39 3.09,-9.449 z m -10.76,23.469 c -2.98,0 -5.52,0.922 -7.71,2.91 -2.13,1.93 -3.22,4.723 -3.22,8.231 0,3.179 1.09,5.839 3.35,7.929 2.15,2.082 4.71,3.051 7.58,3.051 2.82,0 5.34,-0.891 7.49,-2.789 2.18,-1.84 3.27,-4.652 3.27,-8.191 0,-3.508 -1.05,-6.231 -3.18,-8.18 -2.13,-1.961 -4.65,-2.961 -7.58,-2.961"
         style="fill:#ffffff;fill-opacity:1;fill-rule:nonzero;stroke:none"
         id="path84" /><path
         d="m 3454.87,283.512 v -2.711 c 3.79,5.23 7.95,9.109 12.49,11.551 4.53,2.429 9.69,3.687 15.66,3.687 5.66,0 10.78,-1.258 15.33,-3.93 4.45,-2.558 7.87,-6.238 10.09,-10.961 1.41,-2.796 2.32,-5.789 2.75,-8.976 0.38,-3.203 0.68,-7.301 0.68,-12.262 v -42.129 c 0,-4.57 -1.07,-8 -3.01,-10.32 -2,-2.262 -4.6,-3.441 -7.76,-3.441 -3.2,0 -5.83,1.179 -7.8,3.539 -2.02,2.402 -3.07,5.773 -3.07,10.222 v 37.668 c 0,7.52 -0.95,13.262 -2.91,17.192 -2.06,3.937 -6.05,5.91 -12.01,5.91 -3.81,0 -7.31,-1.18 -10.51,-3.621 -3.2,-2.371 -5.52,-5.7 -6.98,-9.899 -1.07,-3.359 -1.6,-9.652 -1.6,-18.953 v -28.297 c 0,-4.621 -1.03,-8.082 -3.09,-10.359 -2.05,-2.262 -4.68,-3.402 -7.88,-3.402 -3.11,0 -5.71,1.179 -7.72,3.5 -2.05,2.441 -3.04,5.812 -3.04,10.261 v 65.379 c 0,4.371 0.91,7.539 2.73,9.699 1.77,2.129 4.28,3.18 7.41,3.18 1.88,0 3.62,-0.508 5.13,-1.41 1.56,-0.899 2.75,-2.359 3.7,-4.207 0.91,-1.902 1.41,-4.184 1.41,-6.91"
         style="fill:#ffffff;fill-opacity:1;fill-rule:nonzero;stroke:none"
         id="path86" /><path
         d="m 3546.66,281.941 17.55,-51.41 18.91,53.641 c 1.51,4.348 2.96,7.348 4.38,9.199 1.46,1.77 3.61,2.668 6.5,2.668 2.76,0 5.12,-0.98 7.1,-2.91 1.9,-1.91 2.87,-4.141 2.87,-6.727 0,-0.992 -0.2,-2.14 -0.55,-3.433 -0.32,-1.34 -0.71,-2.598 -1.18,-3.797 -0.43,-1.133 -0.91,-2.481 -1.55,-3.922 l -20.79,-53.93 c -0.59,-1.531 -1.38,-3.539 -2.3,-5.898 -0.94,-2.383 -1.96,-4.363 -3.08,-6.133 -1.16,-1.648 -2.55,-2.949 -4.2,-3.891 -1.71,-0.937 -3.75,-1.378 -6.11,-1.378 -3.08,0 -5.53,0.699 -7.38,2.179 -1.85,1.442 -3.19,3.012 -4.06,4.781 -0.86,1.75 -2.31,5.18 -4.42,10.34 l -20.64,53.321 c -0.52,1.3 -0.98,2.648 -1.54,4 -0.47,1.281 -0.83,2.621 -1.22,4.058 -0.32,1.36 -0.51,2.539 -0.51,3.539 0,1.571 0.42,3.114 1.34,4.602 0.9,1.558 2.21,2.801 3.74,3.75 1.62,0.941 3.31,1.449 5.2,1.449 3.58,0 6.03,-1.051 7.41,-3.258 1.35,-2.121 2.88,-5.75 4.53,-10.84"
         style="fill:#ffffff;fill-opacity:1;fill-rule:nonzero;stroke:none"
         id="path88" /><path
         d="m 3635.42,257.34 h 39.35 c -0.51,7.719 -2.53,13.519 -6.04,17.34 -3.47,3.82 -8.05,5.761 -13.67,5.761 -5.41,0 -9.85,-1.941 -13.33,-5.839 -3.47,-3.852 -5.55,-9.641 -6.31,-17.262 z m 42.46,-12.84 h -42.46 c 0,-5.211 1.03,-9.691 2.92,-13.68 2.02,-3.859 4.57,-6.832 7.76,-8.82 3.2,-2.02 6.75,-3 10.61,-3 2.61,0 4.96,0.301 7.13,0.941 2.14,0.668 4.23,1.661 6.28,2.989 1.96,1.34 3.79,2.769 5.51,4.379 1.66,1.55 3.94,3.589 6.58,6.261 1.14,1.032 2.72,1.5 4.76,1.5 2.27,0 4.06,-0.582 5.41,-1.879 1.42,-1.269 2.09,-3.07 2.09,-5.363 0,-2.047 -0.79,-4.457 -2.32,-7.219 -1.54,-2.711 -3.83,-5.359 -6.94,-7.879 -3.11,-2.531 -7.03,-4.582 -11.7,-6.269 -4.65,-1.652 -10.02,-2.441 -16.17,-2.441 -13.95,0 -24.79,4.128 -32.47,12.371 -7.73,8.371 -11.6,19.578 -11.6,33.738 0,6.781 0.95,12.961 2.85,18.641 1.93,5.769 4.67,10.691 8.34,14.742 3.63,4.109 8.13,7.297 13.49,9.429 5.4,2.2 11.31,3.27 17.85,3.27 8.41,0 15.68,-1.859 21.76,-5.59 6.06,-3.75 10.64,-8.519 13.64,-14.43 3.03,-5.953 4.53,-11.949 4.53,-18.14 0,-5.672 -1.54,-9.371 -4.66,-11.031 -3.18,-1.711 -7.52,-2.52 -13.19,-2.52"
         style="fill:#ffffff;fill-opacity:1;fill-rule:nonzero;stroke:none"
         id="path90" /><path
         d="m 3791.87,232 c 0,-2.789 -0.83,-5.789 -2.46,-8.969 -1.65,-3.242 -4.05,-6.289 -7.41,-9.191 -3.26,-2.899 -7.48,-5.238 -12.54,-6.988 -5,-1.821 -10.72,-2.68 -16.98,-2.68 -13.44,0 -23.88,4.098 -31.37,12.219 -7.52,8.168 -11.31,19.07 -11.31,32.789 0,9.269 1.7,17.55 5.16,24.64 3.47,7.09 8.4,12.66 14.93,16.559 6.52,3.891 14.32,5.832 23.38,5.832 5.64,0 10.77,-0.852 15.48,-2.512 4.67,-1.758 8.65,-3.988 11.91,-6.668 3.28,-2.73 5.77,-5.601 7.48,-8.679 1.7,-3.071 2.58,-5.911 2.58,-8.59 0,-2.68 -0.95,-4.961 -2.96,-6.864 -1.89,-1.886 -4.22,-2.828 -6.98,-2.828 -1.82,0 -3.31,0.539 -4.45,1.489 -1.22,0.953 -2.56,2.441 -4.05,4.66 -2.65,4.179 -5.41,7.359 -8.28,9.5 -2.94,2.082 -6.59,3.183 -11.04,3.183 -6.39,0 -11.58,-2.672 -15.48,-7.871 -3.94,-5.293 -5.89,-12.383 -5.89,-21.48 0,-4.242 0.52,-8.199 1.51,-11.762 1.01,-3.59 2.49,-6.578 4.38,-9.129 1.91,-2.519 4.21,-4.43 6.93,-5.691 2.63,-1.34 5.63,-2.008 8.86,-2.008 4.33,0 8.13,1.078 11.19,3.148 3.08,2.141 5.84,5.36 8.25,9.629 1.29,2.602 2.75,4.582 4.29,6.024 1.5,1.468 3.39,2.097 5.64,2.097 2.6,0 4.84,-1 6.53,-3.078 1.8,-2.172 2.7,-4.371 2.7,-6.781"
         style="fill:#ffffff;fill-opacity:1;fill-rule:nonzero;stroke:none"
         id="path92" /><path
         d="m 3812,294.109 h 2.4 v 13.661 c 0,3.57 0.08,6.492 0.28,8.57 0.19,2.058 0.67,3.832 1.54,5.34 0.82,1.531 2.08,2.8 3.66,3.761 1.58,0.95 3.35,1.418 5.33,1.418 2.71,0 5.23,-1.089 7.44,-3.179 1.46,-1.489 2.41,-3.239 2.79,-5.282 0.46,-2.058 0.6,-5.046 0.6,-8.859 v -15.43 h 8 c 3.08,0 5.4,-0.738 7.02,-2.289 1.66,-1.48 2.45,-3.429 2.45,-5.789 0,-3.062 -1.16,-5.23 -3.51,-6.41 -2.25,-1.191 -5.57,-1.82 -9.85,-1.82 h -4.11 v -41.699 c 0,-3.551 0.11,-6.262 0.4,-8.192 0.23,-1.941 0.9,-3.469 1.94,-4.609 1.01,-1.219 2.66,-1.86 5.06,-1.86 1.24,0 2.93,0.239 5.13,0.75 2.14,0.418 3.83,0.661 5.09,0.661 1.75,0 3.34,-0.743 4.73,-2.161 1.39,-1.461 2.09,-3.269 2.09,-5.441 0,-3.629 -1.85,-6.43 -5.68,-8.359 -3.91,-1.922 -9.33,-2.871 -16.47,-2.871 -6.78,0 -11.93,1.179 -15.44,3.539 -3.49,2.402 -5.79,5.652 -6.87,9.91 -1.1,4.211 -1.62,9.812 -1.62,16.812 v 43.52 h -2.91 c -3.08,0 -5.45,0.75 -7.1,2.32 -1.65,1.551 -2.49,3.508 -2.49,5.91 0,2.36 0.87,4.309 2.58,5.789 1.73,1.551 4.26,2.289 7.52,2.289"
         style="fill:#ffffff;fill-opacity:1;fill-rule:nonzero;stroke:none"
         id="path94" /><path
         d="m 3927.84,249.988 c 0,9.184 -1.98,16.383 -5.84,21.551 -3.94,5.121 -9.14,7.731 -15.73,7.731 -4.21,0 -7.95,-1.188 -11.19,-3.481 -3.21,-2.328 -5.7,-5.719 -7.43,-10.18 -1.8,-4.437 -2.65,-9.64 -2.65,-15.621 0,-5.918 0.85,-11.078 2.6,-15.5 1.74,-4.429 4.18,-7.816 7.36,-10.168 3.19,-2.32 6.94,-3.511 11.31,-3.511 6.59,0 11.79,2.562 15.73,7.73 3.86,5.16 5.84,12.32 5.84,21.449 z m 21.79,0 c 0,-6.707 -1.02,-12.937 -3.08,-18.707 -1.95,-5.621 -4.92,-10.511 -8.71,-14.609 -3.81,-4.141 -8.39,-7.16 -13.67,-9.422 -5.27,-2.18 -11.2,-3.23 -17.9,-3.23 -6.56,0 -12.49,1.05 -17.73,3.281 -5.2,2.211 -9.76,5.39 -13.6,9.488 -3.81,4.133 -6.74,8.992 -8.7,14.582 -2.02,5.641 -3,11.82 -3,18.641 0,6.859 0.98,13.136 3,18.797 2.04,5.73 4.9,10.582 8.65,14.632 3.8,4.02 8.33,7.141 13.65,9.297 5.44,2.211 11.32,3.301 17.73,3.301 6.59,0 12.54,-1.09 17.9,-3.34 5.36,-2.16 9.92,-5.359 13.76,-9.449 3.79,-4.102 6.74,-8.961 8.72,-14.621 1.96,-5.609 2.98,-11.867 2.98,-18.641"
         style="fill:#ffffff;fill-opacity:1;fill-rule:nonzero;stroke:none"
         id="path96" /><path
         d="m 3988.25,236.609 v -18.828 c 0,-4.621 -1.02,-8.082 -3.05,-10.359 -2.11,-2.262 -4.75,-3.402 -7.9,-3.402 -3.11,0 -5.72,1.179 -7.72,3.441 -1.99,2.32 -3,5.75 -3,10.32 v 63.02 c 0,10.168 3.51,15.238 10.57,15.238 3.54,0 6.19,-1.199 7.8,-3.539 1.57,-2.391 2.4,-5.91 2.61,-10.559 2.59,4.649 5.27,8.168 7.99,10.559 2.71,2.34 6.33,3.539 10.89,3.539 4.6,0 8.98,-1.199 13.33,-3.539 4.24,-2.391 6.44,-5.551 6.44,-9.48 0,-2.782 -0.99,-5.059 -2.79,-6.829 -1.79,-1.781 -3.78,-2.73 -5.91,-2.73 -0.8,0 -2.72,0.551 -5.8,1.578 -3.03,1.031 -5.7,1.539 -8.09,1.539 -3.14,0 -5.75,-0.859 -7.72,-2.637 -2,-1.769 -3.58,-4.3 -4.69,-7.722 -1.14,-3.457 -1.92,-7.539 -2.32,-12.309 -0.39,-4.68 -0.64,-10.441 -0.64,-17.301"
         style="fill:#ffffff;fill-opacity:1;fill-rule:nonzero;stroke:none"
         id="path98" /><path
         d="m 4103.82,233.57 c 0,-6.261 -1.42,-11.57 -4.38,-16.082 -2.95,-4.449 -7.25,-7.789 -12.92,-10.066 -5.73,-2.262 -12.61,-3.402 -20.82,-3.402 -7.75,0 -14.44,1.242 -20.06,3.699 -5.56,2.48 -9.65,5.613 -12.28,9.32 -2.65,3.731 -4.03,7.441 -4.03,11.231 0,2.468 0.88,4.601 2.6,6.332 1.69,1.82 3.84,2.679 6.43,2.679 2.28,0 4,-0.59 5.25,-1.73 1.24,-1.18 2.35,-2.832 3.51,-4.871 2.24,-4.071 4.87,-7.102 8,-9.078 3.06,-2.012 7.32,-3 12.66,-3 4.35,0 7.89,1.027 10.69,3.027 2.77,2.012 4.24,4.34 4.24,6.91 0,4.012 -1.51,6.922 -4.35,8.703 -2.93,1.899 -7.64,3.617 -14.33,5.258 -7.43,1.961 -13.53,4.012 -18.22,6.09 -4.71,2.191 -8.48,4.98 -11.29,8.449 -2.78,3.453 -4.2,7.762 -4.2,12.832 0,4.59 1.31,8.879 3.9,12.859 2.6,4.051 6.46,7.29 11.49,9.692 5.06,2.418 11.17,3.617 18.34,3.617 5.66,0 10.69,-0.617 15.17,-1.82 4.46,-1.199 8.26,-2.86 11.21,-4.867 2.98,-2.09 5.28,-4.34 6.81,-6.832 1.61,-2.52 2.37,-4.93 2.37,-7.27 0,-2.609 -0.84,-4.711 -2.53,-6.441 -1.65,-1.567 -4.05,-2.438 -7.09,-2.438 -2.25,0 -4.1,0.649 -5.72,2.008 -1.55,1.301 -3.35,3.301 -5.36,5.91 -1.61,2.211 -3.55,3.981 -5.78,5.332 -2.27,1.289 -5.26,2.008 -9.08,2.008 -3.9,0 -7.2,-0.867 -9.77,-2.641 -2.6,-1.746 -3.91,-3.906 -3.91,-6.508 0,-2.41 0.95,-4.339 2.83,-5.859 1.95,-1.519 4.51,-2.769 7.74,-3.781 3.28,-1 7.72,-2.231 13.37,-3.668 6.73,-1.703 12.25,-3.723 16.51,-6.121 4.26,-2.379 7.49,-5.153 9.68,-8.442 2.26,-3.23 3.32,-6.89 3.32,-11.039"
         style="fill:#ffffff;fill-opacity:1;fill-rule:nonzero;stroke:none"
         id="path100" /><path
         d="m 4128.49,204.02 c -3.3,0 -6.15,1.05 -8.5,3.281 -2.41,2.211 -3.59,5.308 -3.59,9.301 0,3.339 1.1,6.25 3.39,8.648 2.23,2.449 5.09,3.629 8.42,3.629 3.31,0 6.19,-1.18 8.47,-3.578 2.42,-2.371 3.61,-5.321 3.61,-8.699 0,-3.95 -1.19,-7.02 -3.61,-9.262 -2.28,-2.27 -5.03,-3.32 -8.19,-3.32"
         style="fill:#ffffff;fill-opacity:1;fill-rule:nonzero;stroke:none"
         id="path102" /><path
         d="m 4224.42,249.988 c 0,9.184 -1.96,16.383 -5.87,21.551 -3.9,5.121 -9.11,7.731 -15.69,7.731 -4.21,0 -7.91,-1.188 -11.14,-3.481 -3.28,-2.328 -5.75,-5.719 -7.49,-10.18 -1.73,-4.437 -2.61,-9.64 -2.61,-15.621 0,-5.918 0.84,-11.078 2.57,-15.5 1.74,-4.429 4.18,-7.816 7.4,-10.168 3.2,-2.32 6.99,-3.511 11.27,-3.511 6.58,0 11.79,2.562 15.69,7.73 3.91,5.16 5.87,12.32 5.87,21.449 z m 21.8,0 c 0,-6.707 -0.98,-12.937 -3.08,-18.707 -2,-5.621 -4.87,-10.511 -8.7,-14.609 -3.83,-4.141 -8.32,-7.16 -13.68,-9.422 -5.27,-2.18 -11.23,-3.23 -17.9,-3.23 -6.54,0 -12.45,1.05 -17.68,3.281 -5.25,2.211 -9.77,5.39 -13.61,9.488 -3.88,4.133 -6.78,8.992 -8.79,14.582 -1.96,5.641 -2.95,11.82 -2.95,18.641 0,6.859 0.99,13.136 2.98,18.797 2.11,5.73 4.9,10.582 8.69,14.632 3.74,4.02 8.3,7.141 13.68,9.297 5.35,2.211 11.22,3.301 17.68,3.301 6.58,0 12.54,-1.09 17.9,-3.34 5.36,-2.16 9.95,-5.359 13.76,-9.449 3.81,-4.102 6.7,-8.961 8.74,-14.621 1.98,-5.609 2.96,-11.867 2.96,-18.641"
         style="fill:#ffffff;fill-opacity:1;fill-rule:nonzero;stroke:none"
         id="path104" /><path
         d="m 4284.85,236.609 v -18.828 c 0,-4.621 -1.02,-8.082 -3.08,-10.359 -2.04,-2.262 -4.67,-3.402 -7.83,-3.402 -3.21,0 -5.73,1.179 -7.77,3.441 -2.02,2.32 -2.99,5.75 -2.99,10.32 v 63.02 c 0,10.168 3.55,15.238 10.56,15.238 3.62,0 6.19,-1.199 7.76,-3.539 1.58,-2.391 2.52,-5.91 2.69,-10.559 2.55,4.649 5.19,8.168 7.91,10.559 2.77,2.34 6.43,3.539 10.92,3.539 4.66,0 9.06,-1.199 13.32,-3.539 4.26,-2.391 6.46,-5.551 6.46,-9.48 0,-2.782 -0.93,-5.059 -2.75,-6.829 -1.86,-1.781 -3.79,-2.73 -5.95,-2.73 -0.78,0 -2.69,0.551 -5.72,1.578 -3.08,1.031 -5.74,1.539 -8.13,1.539 -3.13,0 -5.74,-0.859 -7.78,-2.637 -1.98,-1.769 -3.56,-4.3 -4.67,-7.722 -1.1,-3.457 -1.89,-7.539 -2.32,-12.309 -0.39,-4.68 -0.63,-10.441 -0.63,-17.301"
         style="fill:#ffffff;fill-opacity:1;fill-rule:nonzero;stroke:none"
         id="path106" /><path
         d="m 4347.52,250.781 c 0,-9.191 1.89,-16.14 5.75,-20.859 3.83,-4.672 8.83,-7.07 14.86,-7.07 3.59,0 7.06,1.078 10.25,3.07 3.18,2.058 5.83,5.058 7.84,9.117 2.01,4.102 3,9.031 3,14.82 0,9.231 -1.98,16.391 -5.84,21.563 -3.9,5.156 -9.03,7.726 -15.35,7.726 -6.2,0 -11.17,-2.488 -14.88,-7.378 -3.77,-4.961 -5.63,-11.95 -5.63,-20.989 z m 62.86,28.68 V 213.68 c 0,-7.52 -0.81,-14.039 -2.32,-19.391 -1.55,-5.488 -4.04,-9.937 -7.38,-13.488 -3.39,-3.5 -7.89,-6.153 -13.32,-7.891 -5.48,-1.648 -12.28,-2.5 -20.46,-2.5 -7.49,0 -14.18,1.051 -20.02,3.211 -5.9,2.258 -10.44,5.02 -13.59,8.52 -3.17,3.418 -4.8,6.98 -4.8,10.64 0,2.821 0.89,5.059 2.71,6.801 1.81,1.719 3.99,2.617 6.51,2.617 3.19,0 5.94,-1.488 8.36,-4.398 1.18,-1.551 2.39,-3.039 3.62,-4.539 1.21,-1.543 2.6,-2.84 4.14,-3.903 1.49,-1.097 3.36,-1.89 5.47,-2.437 2.06,-0.52 4.55,-0.781 7.3,-0.781 5.59,0 10.01,0.847 13.08,2.468 3.06,1.61 5.24,3.903 6.51,6.782 1.22,2.949 1.99,6.07 2.12,9.418 0.27,3.382 0.4,8.75 0.55,16.152 -3.35,-4.801 -7.24,-8.551 -11.58,-11.07 -4.34,-2.551 -9.58,-3.782 -15.57,-3.782 -7.34,0 -13.67,1.891 -19.08,5.801 -5.44,3.852 -9.62,9.25 -12.51,16.281 -2.9,6.879 -4.39,14.957 -4.39,24.11 0,6.828 0.85,12.969 2.67,18.449 1.74,5.441 4.27,10.051 7.62,13.84 3.22,3.73 7.05,6.558 11.34,8.5 4.29,1.898 8.95,2.84 14.14,2.84 6.12,0 11.48,-1.211 15.97,-3.7 4.53,-2.449 8.67,-6.359 12.53,-11.589 v 3.078 c 0,3.941 0.98,6.941 2.79,9.191 1.86,2.102 4.26,3.219 7.15,3.219 4.22,0 7.02,-1.41 8.4,-4.309 1.34,-2.832 2.04,-6.961 2.04,-12.359"
         style="fill:#ffffff;fill-opacity:1;fill-rule:nonzero;stroke:none"
         id="path108" /><path
         d="m 3470,500 h 32.21 c -2.29,-17.398 -9.38,-30.93 -21.24,-40.648 -10.97,-9.582 -24.22,-14.27 -39.69,-14.27 -21.02,0 -37.75,7.359 -50.29,22.098 -11.88,14.039 -17.82,32.121 -17.82,54.23 0,22.629 5.9,40.75 17.66,54.469 11.7,13.641 28.33,20.5 49.74,20.5 15.94,0 29.43,-4.289 40.4,-12.84 11.62,-9.277 18.71,-22.277 21.24,-38.91 H 3470 c -2.75,14.519 -11.67,21.773 -26.75,21.773 -24.88,0 -37.32,-14.754 -37.32,-44.23 0,-13.832 3.18,-25.113 9.61,-33.891 6.38,-8.832 15.41,-13.261 27.05,-13.261 17.32,0 26.46,8.32 27.41,24.98 z m -126.7,20.27 c 0,-28.801 9.13,-53.211 27.37,-73.028 18.25,-19.89 40.61,-29.832 67.14,-29.832 26.4,0 48.78,9.942 67.04,29.832 18.25,19.817 27.35,44.227 27.35,73.028 0,28.781 -9.1,53.128 -27.35,73 -18.26,19.91 -40.64,29.839 -67.04,29.839 -26.53,0 -48.89,-9.929 -67.14,-29.839 -18.24,-19.872 -27.37,-44.219 -27.37,-73 z m -32.68,0 c 0,36.66 12.4,67.921 37.24,93.929 24.85,25.93 54.83,38.891 89.95,38.891 35.08,0 64.99,-12.961 89.9,-38.891 24.84,-26.008 37.29,-57.269 37.29,-93.929 0,-36.641 -12.45,-67.969 -37.29,-93.961 -24.91,-25.93 -54.82,-38.938 -89.9,-38.938 -35.11,0 -65.1,13.008 -89.94,38.938 -24.85,25.992 -37.25,57.32 -37.25,93.961"
         style="fill:#ffffff;fill-opacity:1;fill-rule:nonzero;stroke:none"
         id="path110" /><path
         d="M 0,0 H 6596.89 V 6596.88 H 0 V 0"
         style="fill:#5f6f91;fill-opacity:1;fill-rule:evenodd;stroke:none"
         id="path14" /><path
         d="m 5899.18,6596.88 h 221.73 L 6162.7,4863.15 6279.92,0 h -539.74 l 117.22,4863.15 z m -1072.5,0 h 315.61 l 22.6,-984.59 L 5293.7,0 h -618.44 l 128.82,5612.29 22.6,984.59 z m -1493.67,0 H 3623.4 L 3755.76,3192.61 3879.88,0 h -803.35 l 124.12,3192.61 132.36,3404.27 z m -1297.61,0 h 257.61 l 9.97,-479.81 L 2430.02,0 h -531.63 l 127.03,6117.07 9.98,479.81 z m -1319.771,0 H 1497.57 L 1741.05,0 H 472.148 l 243.481,6596.88 v 0"
         style="fill:#576688;fill-opacity:1;fill-rule:evenodd;stroke:none"
         id="path16" /><path
         d="M 6596.89,5146.59 5117.04,4249.73 5782.71,3948.76 5766.69,3904.7 4938.71,4141.65 0,1148.51 v 1466.23 l 3263.64,1339.77 612.17,1067.89 44.06,-8.02 -388.08,-949.79 3065.1,1258.27 v -176.27"
         style="fill:#495777;fill-opacity:1;fill-rule:evenodd;stroke:none"
         id="path18" /><path
         d="m 6050.12,6596.88 h 546.77 V 0 h -546.77 z m -1971.01,0 h 801.22 V 0 h -801.22 v 6596.88 z m -1586.4,0 H 3021.5 V 0 h -528.79 v 6596.88 z m -1554.366,0 H 1835.7 V 0 H 938.344 v 6596.88 0"
         style="fill:#2d374e;fill-opacity:1;fill-rule:evenodd;stroke:none"
         id="path20" /><path
         d="m 6050.12,6596.88 h 399.91 L 6187.63,0 h -137.51 z m -1971.01,0 h 399.92 L 4216.63,0 h -137.52 v 6596.88 z m -1586.4,0 h 399.91 L 2630.22,0 h -137.51 v 6596.88 z m -1554.366,0 H 1338.26 L 1075.85,0 H 938.344 v 6596.88 0"
         style="fill:#3c4863;fill-opacity:1;fill-rule:evenodd;stroke:none"
         id="path22" /><path
         d="M 4187.28,5059.46 3149.69,6596.88 h 116.19 l 893.36,-964.54 28.04,-572.88"
         style="fill:#3c4863;fill-opacity:1;fill-rule:evenodd;stroke:none"
         id="path24" /><path
         d="m 3265.88,6596.88 813.23,-914.47 v 112.16 l -786.19,802.31 h -27.04"
         style="fill:#ffffff;fill-opacity:1;fill-rule:evenodd;stroke:none"
         id="path26" /><path
         d="m 5943.96,6596.88 -1281.97,-2246.5 -28.03,632.96 1169.76,1613.54 h 140.24"
         style="fill:#2d374e;fill-opacity:1;fill-rule:evenodd;stroke:none"
         id="path28" /><path
         d="M 5803.72,6596.88 4880.33,5432.03 v -192.3 l 971.48,1357.15 h -48.09"
         style="fill:#ffffff;fill-opacity:1;fill-rule:evenodd;stroke:none"
         id="path30" /><path
         d="M 1092.56,4716.45 0,5964.84 v 212.32 l 1120.6,-1001.11 -28.04,-459.6"
         style="fill:#3c4863;fill-opacity:1;fill-rule:evenodd;stroke:none"
         id="path32" /><path
         d="m 0,6177.16 938.344,-873.79 v 140.21 L 0,6241.25 v -64.09"
         style="fill:#ffffff;fill-opacity:1;fill-rule:evenodd;stroke:none"
         id="path34" /><path
         d="m 1806.12,4463.98 612.79,167.97 19.96,-143.35 -657.26,-374.57 24.51,349.95"
         style="fill:#2d374e;fill-opacity:1;fill-rule:evenodd;stroke:none"
         id="path36" /><path
         d="m 2418.91,4631.95 -612.79,-113.61 v -128.91 l 617.17,211.03 -4.38,31.49"
         style="fill:#ffffff;fill-opacity:1;fill-rule:evenodd;stroke:none"
         id="path38" /><path
         d="m 4873.58,3480.04 443.96,48.81 14.46,-147.24 -476.19,-246.75 17.77,345.18"
         style="fill:#2d374e;fill-opacity:1;fill-rule:evenodd;stroke:none"
         id="path40" /><path
         d="m 5317.54,3528.85 -443.96,5.56 v -128.92 l 447.13,91.02 -3.17,32.34"
         style="fill:#ffffff;fill-opacity:1;fill-rule:evenodd;stroke:none"
         id="path42" /><path
         d="m 2492.71,5317.84 -882.37,1279.04 h 76.12 l 806.25,-970.58 79.09,-148.22 -79.09,-160.24"
         style="fill:#3c4863;fill-opacity:1;fill-rule:evenodd;stroke:none"
         id="path44" /><path
         d="m 1686.46,6596.88 806.25,-996.58 v 108.13 l -770.19,888.45 h -36.06"
         style="fill:#ffffff;fill-opacity:1;fill-rule:evenodd;stroke:none"
         id="path46" /><path
         d="M 0,1605.2 6596.89,2903.16 V 1997.8 L 0,0 v 1605.2"
         style="fill:#262f42;fill-opacity:1;fill-rule:evenodd;stroke:none"
         id="path48" /><path
         d="m 0,671.648 2402,677.512 -481.58,-288.28 1819.19,504.25 -601.31,23.37 2267.84,617.6 -424.66,-288.45 1615.41,532.82 V 1997.8 L 0,0 v 671.648"
         style="fill:#181a20;fill-opacity:1;fill-rule:evenodd;stroke:none"
         id="path50" /><path
         d="m 0,1444.96 6596.89,1375.87 v 154.63 L 0,1717.37 v -272.41"
         style="fill:#ffffff;fill-opacity:1;fill-rule:evenodd;stroke:none"
         id="path52" /><path
         d="M 3176.77,1210.61 5456.23,0 h 420.65 L 3986.01,1406.9 3176.77,1210.61"
         style="fill:#181a20;fill-opacity:1;fill-rule:evenodd;stroke:none"
         id="path54" /><path
         d="M 4268.04,1292.5 5944.98,0 h -124.19 l -1708.28,1245.43 155.53,47.07"
         style="fill:#ffffff;fill-opacity:1;fill-rule:evenodd;stroke:none"
         id="path56" /><path
         d="m 2697.36,1687.85 819.93,1804.22 96.14,8.02 -392.59,-1482.26 -523.48,-329.98"
         style="fill:#262f42;fill-opacity:1;fill-rule:evenodd;stroke:none"
         id="path58" /><path
         d="m 3175.12,2739.13 294.1,821.05 136.21,14 8,-74.09 -96.14,-8.02 -342.17,-752.94"
         style="fill:#ffffff;fill-opacity:1;fill-rule:evenodd;stroke:none"
         id="path60" /><path
         d="m 659.055,3765.66 c 26.472,0 47.922,-21.45 47.922,-47.93 0,-26.47 -21.45,-47.91 -47.922,-47.91 -26.465,0 -47.918,21.44 -47.918,47.91 0,26.48 21.453,47.93 47.918,47.93 z M 616.68,2513.91 c 28.57,0 51.738,-23.17 51.738,-51.73 0,-28.58 -23.168,-51.75 -51.738,-51.75 -28.578,0 -51.739,23.17 -51.739,51.75 0,28.56 23.161,51.73 51.739,51.73 z M 1902.6,3540.15 c 36.94,0 66.89,-29.94 66.89,-66.9 0,-36.93 -29.95,-66.89 -66.89,-66.89 -36.94,0 -66.9,29.96 -66.9,66.89 0,36.96 29.96,66.9 66.9,66.9 z m 1408.34,8 c 17.69,0 32.04,-14.34 32.04,-32.04 0,-17.69 -14.35,-32.04 -32.04,-32.04 -17.69,0 -32.04,14.35 -32.04,32.04 0,17.7 14.35,32.04 32.04,32.04 z m 228.35,1330.03 c 33.18,0 60.09,-26.9 60.09,-60.09 0,-33.19 -26.91,-60.09 -60.09,-60.09 -33.2,0 -60.1,26.9 -60.1,60.09 0,33.19 26.9,60.09 60.1,60.09 z m 1626.8,144.22 c 28.95,0 52.41,-23.47 52.41,-52.41 0,-28.94 -23.46,-52.41 -52.41,-52.41 -28.94,0 -52.41,23.47 -52.41,52.41 0,28.94 23.47,52.41 52.41,52.41 z m 184.09,-2887.02 c 26.58,0 48.14,-21.58 48.14,-48.15 0,-26.6 -21.56,-48.14 -48.14,-48.14 -26.62,0 -48.17,21.54 -48.17,48.14 0,26.57 21.55,48.15 48.17,48.15 z M 5801,1024.47 c 19.95,0 36.12,-16.17 36.12,-36.13 0,-19.949 -16.17,-36.121 -36.12,-36.121 -19.96,0 -36.13,16.172 -36.13,36.121 0,19.96 16.17,36.13 36.13,36.13 z M 2985.46,519.57 c -19.93,0 -36.06,-16.16 -36.06,-36.078 0,-19.902 16.13,-36.043 36.06,-36.043 19.91,0 36.04,16.141 36.04,36.043 0,19.918 -16.13,36.078 -36.04,36.078 z m -864.32,5023.62 c -24.34,0 -44.06,-19.73 -44.06,-44.06 0,-24.34 19.72,-44.07 44.06,-44.07 24.33,0 44.07,19.73 44.07,44.07 0,24.33 -19.74,44.06 -44.07,44.06 z m 1627.3,889.91 c 65.54,0 118.69,-53.14 118.69,-118.69 0,-65.54 -53.15,-118.68 -118.69,-118.68 -65.54,0 -118.68,53.14 -118.68,118.68 0,65.55 53.14,118.69 118.68,118.69 z m 2038.59,-657.56 c 48.87,0 88.47,-39.61 88.47,-88.47 0,-48.86 -39.6,-88.47 -88.47,-88.47 -48.85,0 -88.47,39.61 -88.47,88.47 0,48.86 39.62,88.47 88.47,88.47 z m -31.57,-2035.09 c 40.26,0 72.91,-32.65 72.91,-72.92 0,-40.26 -32.65,-72.9 -72.91,-72.9 -40.26,0 -72.92,32.64 -72.92,72.9 0,40.27 32.66,72.92 72.92,72.92 z m -3462.3,-673.02 c 66.26,0 119.96,-53.7 119.96,-119.95 0,-66.25 -53.7,-119.97 -119.96,-119.97 -66.24,0 -119.95,53.72 -119.95,119.97 0,66.25 53.71,119.95 119.95,119.95 z M 4705.4,2186.09 c 79.83,0 144.56,-64.72 144.56,-144.55 0,-79.87 -64.73,-144.57 -144.56,-144.57 -79.84,0 -144.57,64.7 -144.57,144.57 0,79.83 64.73,144.55 144.57,144.55 z m 1023.55,128.18 c 43.34,0 78.46,-35.12 78.46,-78.44 0,-43.34 -35.12,-78.47 -78.46,-78.47 -43.32,0 -78.45,35.13 -78.45,78.47 0,43.32 35.13,78.44 78.45,78.44 z M 843.613,898.031 c 22.649,0 41.012,-18.371 41.012,-41.019 0,-22.653 -18.363,-41.012 -41.012,-41.012 -22.644,0 -41.008,18.359 -41.008,41.012 0,22.648 18.364,41.019 41.008,41.019 z m 696.647,438.759 c 35.39,0 64.09,-28.69 64.09,-64.08 0,-35.42 -28.7,-64.1 -64.09,-64.1 -35.4,0 -64.1,28.68 -64.1,64.1 0,35.39 28.7,64.08 64.1,64.08 z m 99.9,-624.958 c 59.59,0 107.9,-48.301 107.9,-107.902 0,-59.59 -48.31,-107.891 -107.9,-107.891 -59.6,0 -107.92,48.301 -107.92,107.891 0,59.601 48.32,107.902 107.92,107.902 z M 2750.1,1497.04 c 70.79,0 128.19,-57.39 128.19,-128.2 0,-70.81 -57.4,-128.18 -128.19,-128.18 -70.81,0 -128.2,57.37 -128.2,128.18 0,70.81 57.39,128.2 128.2,128.2 z m 1257.41,1850.81 c 39.55,0 71.6,-32.05 71.6,-71.6 0,-39.56 -32.05,-71.62 -71.6,-71.62 -39.55,0 -71.61,32.06 -71.61,71.62 0,39.55 32.06,71.6 71.61,71.6 z m 1149.5,901.88 c 22.08,0 39.98,-17.9 39.98,-39.97 0,-22.08 -17.9,-39.98 -39.98,-39.98 -22.06,0 -39.97,17.9 -39.97,39.98 0,22.07 17.91,39.97 39.97,39.97 z m 485.48,-1110.19 c 17.71,0 32.05,-14.35 32.05,-32.05 0,-17.7 -14.34,-32.06 -32.05,-32.06 -17.7,0 -32.05,14.36 -32.05,32.06 0,17.7 14.35,32.05 32.05,32.05 z m 448.18,-1778.7 c 22.41,0 40.57,-18.15 40.57,-40.55 0,-22.41 -18.16,-40.59 -40.57,-40.59 -22.39,0 -40.55,18.18 -40.55,40.59 0,22.4 18.16,40.55 40.55,40.55 z M 4376.24,605.289 c 33,0 59.75,-26.73 59.75,-59.73 0,-32.989 -26.75,-59.739 -59.75,-59.739 -32.99,0 -59.74,26.75 -59.74,59.739 0,33 26.75,59.73 59.74,59.73 z M 606.645,4453.54 c 28.66,0 51.89,-23.24 51.89,-51.89 0,-28.66 -23.23,-51.9 -51.89,-51.9 -28.657,0 -51.895,23.24 -51.895,51.9 0,28.65 23.238,51.89 51.895,51.89 v 0"
         style="fill:#bcc6db;fill-opacity:1;fill-rule:evenodd;stroke:none"
         id="path62" /></g></g></svg>
