<?xml version="1.0" encoding="UTF-8" standalone="no"?>
<svg
   xmlns:dc="http://purl.org/dc/elements/1.1/"
   xmlns:cc="http://creativecommons.org/ns#"
   xmlns:rdf="http://www.w3.org/1999/02/22-rdf-syntax-ns#"
   xmlns:svg="http://www.w3.org/2000/svg"
   xmlns="http://www.w3.org/2000/svg"
   xmlns:sodipodi="http://sodipodi.sourceforge.net/DTD/sodipodi-0.dtd"
   xmlns:inkscape="http://www.inkscape.org/namespaces/inkscape"
   version="1.1"
   id="svg2"
   xml:space="preserve"
   width="879.03998"
   height="879.03998"
   viewBox="0 0 879.03998 879.03998"
   sodipodi:docname="winter-landscape-forest-publicdomainvectors.org.svg"
   inkscape:version="1.0.1 (3bc2e813f5, 2020-09-07)"><metadata
     id="metadata8"><rdf:RDF><cc:Work
         rdf:about=""><dc:format>image/svg+xml</dc:format><dc:type
           rdf:resource="http://purl.org/dc/dcmitype/StillImage" /></cc:Work></rdf:RDF></metadata><defs
     id="defs6" /><sodipodi:namedview
     pagecolor="#ffffff"
     bordercolor="#666666"
     borderopacity="1"
     objecttolerance="10"
     gridtolerance="10"
     guidetolerance="10"
     inkscape:pageopacity="0"
     inkscape:pageshadow="2"
     inkscape:window-width="2560"
     inkscape:window-height="1017"
     id="namedview4"
     inkscape:document-rotation="0"
     showgrid="false"
     inkscape:zoom="0.68374679"
     inkscape:cx="685.15398"
     inkscape:cy="645.29563"
     inkscape:window-x="1912"
     inkscape:window-y="-8"
     inkscape:window-maximized="1"
     inkscape:current-layer="g12" /><g
     id="g10"
     inkscape:groupmode="layer"
     inkscape:label="ink_ext_XXXXXX"
     transform="matrix(1.3333333,0,0,-1.3333333,0,879.04)"><g
       id="g12"
       transform="scale(0.1)"><path
         d="m 3428.72,260.371 19.83,-58.16 21.41,60.699 c 1.72,4.891 3.35,8.301 4.99,10.36 1.64,2.019 4.05,3.082 7.34,3.082 3.14,0 5.79,-1.122 8.01,-3.34 2.16,-2.192 3.27,-4.672 3.27,-7.614 0,-1.097 -0.22,-2.398 -0.6,-3.859 -0.36,-1.559 -0.82,-2.969 -1.35,-4.301 -0.52,-1.277 -1.04,-2.797 -1.75,-4.457 l -23.56,-61.011 c -0.67,-1.739 -1.53,-3.989 -2.56,-6.68 -1.08,-2.668 -2.26,-4.949 -3.53,-6.93 -1.3,-1.879 -2.88,-3.332 -4.74,-4.41 -1.92,-1.039 -4.22,-1.59 -6.93,-1.59 -3.46,0 -6.25,0.809 -8.32,2.461 -2.09,1.66 -3.62,3.457 -4.58,5.469 -0.98,1.941 -2.67,5.851 -5,11.68 l -23.39,60.332 c -0.55,1.507 -1.11,3.019 -1.7,4.488 -0.55,1.519 -0.99,3.012 -1.41,4.609 -0.36,1.602 -0.59,2.93 -0.59,4.031 0,1.782 0.51,3.5 1.56,5.211 1.01,1.739 2.44,3.188 4.23,4.239 1.81,1.082 3.72,1.672 5.85,1.672 4.05,0 6.87,-1.243 8.39,-3.731 1.55,-2.41 3.26,-6.492 5.13,-12.25"
         style="fill:#ffffff;fill-opacity:1;fill-rule:nonzero;stroke:none"
         id="path116" /><path
         d="m 2276.27,224.672 c 0,6.777 -0.96,12.609 -2.98,17.418 -1.94,4.879 -4.69,8.59 -8.22,11.23 -3.51,2.582 -7.37,3.91 -11.66,3.91 -6.76,0 -12.47,-2.859 -17.14,-8.398 -4.66,-5.602 -6.98,-13.75 -6.98,-24.613 0,-10.207 2.32,-18.129 6.92,-23.758 4.64,-5.66 10.38,-8.539 17.2,-8.539 4.09,0 7.87,1.25 11.37,3.75 3.44,2.457 6.25,6.156 8.35,11.078 2.11,4.98 3.14,10.93 3.14,17.922 z m -48.13,37.34 v -3.094 c 4.62,5.941 9.4,10.332 14.37,13.094 4.99,2.797 10.66,4.218 16.96,4.218 7.54,0 14.5,-2.058 20.87,-6.16 6.34,-4.039 11.35,-9.961 15.06,-17.8 3.69,-7.848 5.51,-17.079 5.51,-27.801 0,-7.879 -1.03,-15.188 -3.17,-21.707 -2.11,-6.633 -5.04,-12.184 -8.77,-16.653 -3.72,-4.48 -8.13,-7.949 -13.18,-10.308 -5.09,-2.449 -10.54,-3.641 -16.32,-3.641 -7.05,0 -12.95,1.461 -17.71,4.41 -4.8,2.93 -9.31,7.219 -13.62,12.942 v -38.461 c 0,-11.301 -3.93,-16.903 -11.78,-16.903 -4.63,0 -7.69,1.422 -9.16,4.34 -1.5,2.93 -2.25,7.172 -2.25,12.723 v 110.641 c 0,4.847 0.99,8.527 3.05,10.918 2.06,2.398 4.84,3.64 8.36,3.64 3.47,0 6.32,-1.242 8.5,-3.742 2.19,-2.508 3.28,-6.066 3.28,-10.656"
         style="fill:#ffffff;fill-opacity:1;fill-rule:nonzero;stroke:none"
         id="path92" /><path
         d="m 2384.46,186.641 v 3.269 c -2.97,-3.898 -6.04,-7.121 -9.3,-9.719 -3.24,-2.699 -6.78,-4.64 -10.59,-5.91 -3.86,-1.261 -8.25,-1.91 -13.15,-1.91 -5.93,0 -11.25,1.301 -15.96,3.82 -4.72,2.579 -8.35,6.118 -10.91,10.618 -3.1,5.453 -4.61,13.273 -4.61,23.429 v 50.813 c 0,5.097 1.11,8.949 3.34,11.449 2.21,2.551 5.14,3.852 8.8,3.852 3.73,0 6.72,-1.301 9,-3.891 2.27,-2.563 3.41,-6.402 3.41,-11.41 V 220 c 0,-5.91 0.49,-10.91 1.39,-14.93 1.01,-4.058 2.72,-7.23 5.26,-9.519 2.44,-2.27 5.81,-3.399 10.07,-3.399 4.18,0 8.08,1.297 11.7,3.86 3.69,2.547 6.36,5.867 8.02,9.988 1.4,3.66 2.07,11.609 2.07,23.879 v 31.172 c 0,5.008 1.14,8.847 3.43,11.41 2.26,2.59 5.22,3.891 8.87,3.891 3.67,0 6.6,-1.301 8.82,-3.852 2.21,-2.5 3.3,-6.352 3.3,-11.449 v -74.242 c 0,-4.879 -1.03,-8.559 -3.18,-10.969 -2.09,-2.469 -4.84,-3.66 -8.21,-3.66 -3.34,0 -6.11,1.289 -8.3,3.781 -2.18,2.57 -3.27,6.07 -3.27,10.68"
         style="fill:#ffffff;fill-opacity:1;fill-rule:nonzero;stroke:none"
         id="path94" /><path
         d="m 2455.68,223.66 c 0,-10.191 2.22,-18.012 6.67,-23.512 4.48,-5.449 10.34,-8.226 17.61,-8.226 6.2,0 11.49,2.816 15.99,8.418 4.48,5.609 6.69,13.578 6.69,24.051 0,6.828 -0.93,12.64 -2.77,17.488 -1.88,4.891 -4.55,8.68 -7.92,11.34 -3.47,2.621 -7.42,4.011 -11.99,4.011 -4.71,0 -8.83,-1.39 -12.5,-4.011 -3.68,-2.66 -6.54,-6.547 -8.65,-11.571 -2.1,-5 -3.13,-10.988 -3.13,-17.988 z m -1.17,76.168 v -39.156 c 4.57,5.058 9.3,8.84 14.1,11.547 4.79,2.66 10.75,4.011 17.83,4.011 8.14,0 15.27,-2.058 21.45,-6.07 6.12,-4.101 10.92,-9.91 14.29,-17.57 3.42,-7.668 5.09,-16.738 5.09,-27.25 0,-7.801 -0.94,-14.91 -2.81,-21.41 -1.91,-6.469 -4.63,-12.051 -8.22,-16.84 -3.63,-4.75 -7.99,-8.379 -13.11,-11.07 -5.14,-2.551 -10.8,-3.86 -16.95,-3.86 -3.78,0 -7.33,0.469 -10.69,1.418 -3.34,0.934 -6.17,2.141 -8.48,3.711 -2.36,1.481 -4.35,3.082 -6,4.691 -1.65,1.649 -3.8,4.079 -6.5,7.329 v -2.5 c 0,-4.86 -1.13,-8.5 -3.36,-10.969 -2.2,-2.469 -5.04,-3.68 -8.43,-3.68 -3.5,0 -6.24,1.211 -8.34,3.68 -2.07,2.551 -3.09,6.14 -3.09,10.969 v 111.91 c 0,5.152 1,9.09 3.03,11.73 2,2.692 4.78,4.012 8.4,4.012 3.74,0 6.68,-1.281 8.7,-3.832 2.06,-2.52 3.09,-6.098 3.09,-10.801"
         style="fill:#ffffff;fill-opacity:1;fill-rule:nonzero;stroke:none"
         id="path96" /><path
         d="m 2544.6,187.75 v 111.129 c 0,5.16 1.09,9.012 3.27,11.652 2.2,2.61 5.15,3.93 8.86,3.93 3.72,0 6.71,-1.289 9.01,-3.91 2.24,-2.582 3.4,-6.5 3.4,-11.672 V 187.75 c 0,-5.18 -1.18,-9.102 -3.46,-11.73 -2.31,-2.551 -5.29,-3.86 -8.95,-3.86 -3.59,0 -6.49,1.34 -8.75,4.031 -2.26,2.719 -3.38,6.539 -3.38,11.559"
         style="fill:#ffffff;fill-opacity:1;fill-rule:nonzero;stroke:none"
         id="path98" /><path
         d="M 2619.05,261.762 V 187.75 c 0,-5.168 -1.19,-9.039 -3.48,-11.672 -2.35,-2.578 -5.34,-3.918 -8.91,-3.918 -3.61,0 -6.53,1.34 -8.77,4.02 -2.24,2.73 -3.38,6.55 -3.38,11.57 v 73.301 c 0,5.008 1.14,8.847 3.38,11.41 2.24,2.59 5.16,3.891 8.77,3.891 3.57,0 6.56,-1.301 8.91,-3.891 2.29,-2.563 3.48,-6.102 3.48,-10.699 z m -12.16,26.519 c -3.39,0 -6.3,1.071 -8.78,3.328 -2.36,2.172 -3.6,5.321 -3.6,9.313 0,3.609 1.24,6.558 3.73,8.976 2.46,2.332 5.36,3.442 8.65,3.442 3.2,0 6.03,-1.031 8.49,-3.149 2.43,-2.121 3.67,-5.261 3.67,-9.269 0,-3.981 -1.21,-7.043 -3.59,-9.25 -2.4,-2.223 -5.24,-3.391 -8.57,-3.391"
         style="fill:#ffffff;fill-opacity:1;fill-rule:nonzero;stroke:none"
         id="path100" /><path
         d="m 2732.37,203.891 c 0,-3.18 -0.9,-6.602 -2.71,-10.219 -1.87,-3.641 -4.65,-7.082 -8.41,-10.371 -3.73,-3.281 -8.45,-5.922 -14.14,-7.903 -5.69,-2.046 -12.13,-3.027 -19.23,-3.027 -15.19,0 -27.02,4.617 -35.55,13.809 -8.51,9.269 -12.76,21.609 -12.76,37.129 0,10.5 1.94,19.832 5.82,27.863 3.9,8.047 9.57,14.328 16.92,18.726 7.35,4.43 16.19,6.633 26.42,6.633 6.37,0 12.22,-0.992 17.52,-2.89 5.31,-1.961 9.8,-4.493 13.47,-7.512 3.7,-3.07 6.5,-6.34 8.48,-9.809 1.98,-3.48 2.91,-6.718 2.91,-9.73 0,-3.02 -1.11,-5.602 -3.27,-7.758 -2.2,-2.152 -4.83,-3.211 -7.96,-3.211 -2.06,0 -3.74,0.598 -5.1,1.699 -1.32,1.039 -2.87,2.77 -4.53,5.262 -3.01,4.727 -6.14,8.309 -9.41,10.738 -3.28,2.36 -7.43,3.602 -12.42,3.602 -7.29,0 -13.15,-3.012 -17.58,-8.91 -4.43,-5.961 -6.64,-14.043 -6.64,-24.293 0,-4.801 0.59,-9.289 1.71,-13.321 1.15,-4.027 2.8,-7.437 4.93,-10.316 2.17,-2.852 4.76,-5 7.85,-6.453 3.04,-1.488 6.41,-2.238 10.04,-2.238 4.95,0 9.14,1.168 12.65,3.57 3.52,2.398 6.63,6.027 9.29,10.859 1.54,2.93 3.14,5.168 4.89,6.84 1.74,1.602 3.87,2.379 6.38,2.379 3,0 5.49,-1.16 7.48,-3.508 1.94,-2.441 2.95,-4.949 2.95,-7.64"
         style="fill:#ffffff;fill-opacity:1;fill-rule:nonzero;stroke:none"
         id="path102" /><path
         d="m 2772.82,224.391 c 0,-6.942 1.03,-12.821 3.1,-17.743 2.07,-4.886 4.87,-8.519 8.45,-10.976 3.64,-2.5 7.55,-3.75 11.77,-3.75 4.35,0 8.28,1.199 11.84,3.527 3.57,2.36 6.4,5.961 8.56,10.801 2.12,4.852 3.17,10.91 3.17,18.141 0,6.851 -1.05,12.699 -3.17,17.621 -2.16,4.957 -5.01,8.668 -8.64,11.308 -3.63,2.582 -7.59,3.91 -11.89,3.91 -4.49,0 -8.5,-1.39 -12.06,-4.011 -3.51,-2.66 -6.27,-6.5 -8.21,-11.489 -1.94,-5 -2.92,-10.699 -2.92,-17.339 z m 48.24,-37.582 v 2.5 c -3.28,-3.95 -6.54,-7.137 -9.77,-9.598 -3.17,-2.481 -6.67,-4.359 -10.41,-5.652 -3.73,-1.227 -7.84,-1.899 -12.27,-1.899 -5.85,0 -11.32,1.309 -16.32,3.86 -4.98,2.691 -9.32,6.351 -12.97,11.171 -3.66,4.797 -6.42,10.477 -8.34,17 -1.9,6.481 -2.83,13.528 -2.83,21.149 0,15.961 3.76,28.5 11.24,37.461 7.51,8.941 17.37,13.429 29.58,13.429 7.08,0 13.06,-1.3 17.9,-3.878 4.84,-2.493 9.59,-6.411 14.19,-11.68 V 298.5 c 0,5.27 1.01,9.23 3.04,11.91 1.99,2.711 4.83,4.051 8.56,4.051 3.72,0 6.56,-1.231 8.6,-3.691 2.01,-2.461 3.04,-6.141 3.04,-10.942 V 186.809 c 0,-4.879 -1.1,-8.559 -3.26,-10.969 -2.16,-2.469 -4.95,-3.68 -8.38,-3.68 -3.31,0 -6.12,1.25 -8.32,3.801 -2.19,2.5 -3.28,6.09 -3.28,10.848"
         style="fill:#ffffff;fill-opacity:1;fill-rule:nonzero;stroke:none"
         id="path104" /><path
         d="m 2936.2,224.199 c 0,10.403 -2.22,18.563 -6.63,24.371 -4.4,5.801 -10.34,8.75 -17.75,8.75 -4.83,0 -9.03,-1.332 -12.7,-3.918 -3.64,-2.621 -6.47,-6.433 -8.44,-11.523 -1.98,-5.008 -2.97,-10.91 -2.97,-17.68 0,-6.699 0.99,-12.551 2.92,-17.551 1.95,-4.988 4.74,-8.808 8.39,-11.507 3.59,-2.621 7.91,-3.93 12.8,-3.93 7.41,0 13.35,2.879 17.75,8.738 4.41,5.821 6.63,13.93 6.63,24.25 z m 24.63,0 c 0,-7.609 -1.14,-14.64 -3.42,-21.14 -2.27,-6.379 -5.56,-11.93 -9.87,-16.579 -4.33,-4.64 -9.49,-8.089 -15.49,-10.64 -5.99,-2.469 -12.78,-3.68 -20.23,-3.68 -7.44,0 -14.11,1.211 -20.06,3.762 -5.93,2.48 -11.08,6.058 -15.43,10.719 -4.34,4.691 -7.62,10.16 -9.91,16.507 -2.24,6.383 -3.34,13.372 -3.34,21.094 0,7.758 1.14,14.848 3.4,21.27 2.29,6.468 5.55,11.949 9.79,16.558 4.28,4.532 9.42,8.078 15.49,10.539 6.08,2.461 12.74,3.743 20.06,3.743 7.44,0 14.2,-1.282 20.23,-3.782 6.04,-2.511 11.23,-6.101 15.55,-10.718 4.32,-4.622 7.61,-10.161 9.83,-16.543 2.3,-6.36 3.4,-13.418 3.4,-21.11"
         style="fill:#ffffff;fill-opacity:1;fill-rule:nonzero;stroke:none"
         id="path106" /><path
         d="m 3064.53,245.34 c -1.83,-4.32 -2.72,-11.938 -2.72,-22.949 v -34.059 c 0,-5.363 -1.15,-9.422 -3.52,-12.141 -2.32,-2.691 -5.43,-4.031 -9.27,-4.031 -3.7,0 -6.7,1.34 -8.99,4.031 -2.31,2.719 -3.45,6.778 -3.45,12.141 v 40.848 c 0,6.441 -0.24,11.449 -0.67,15.05 -0.43,3.54 -1.55,6.489 -3.41,8.77 -1.82,2.301 -4.79,3.449 -8.78,3.449 -8.03,0 -13.3,-2.879 -15.88,-8.679 -2.55,-5.758 -3.79,-14.02 -3.79,-24.801 v -34.637 c 0,-5.352 -1.17,-9.383 -3.46,-12.051 -2.32,-2.781 -5.37,-4.121 -9.11,-4.121 -3.74,0 -6.81,1.34 -9.16,4.121 -2.38,2.668 -3.52,6.699 -3.52,12.008 v 73.352 c 0,4.828 1.02,8.507 3.13,10.98 2.16,2.488 4.95,3.789 8.44,3.789 3.36,0 6.16,-1.18 8.4,-3.531 2.26,-2.328 3.37,-5.551 3.37,-9.699 v -2.442 c 4.25,5.321 8.82,9.254 13.66,11.723 4.84,2.48 10.3,3.769 16.19,3.769 6.17,0 11.43,-1.3 15.89,-3.878 4.46,-2.551 8.09,-6.45 10.95,-11.614 4.14,5.203 8.6,9.16 13.33,11.672 4.75,2.531 9.97,3.82 15.72,3.82 6.75,0 12.52,-1.351 17.36,-4.148 4.87,-2.773 8.49,-6.684 10.89,-11.832 2.11,-4.621 3.14,-11.91 3.14,-21.891 v -50.027 c 0,-5.363 -1.15,-9.422 -3.47,-12.141 -2.38,-2.691 -5.44,-4.031 -9.29,-4.031 -3.72,0 -6.77,1.34 -9.11,4.121 -2.4,2.668 -3.59,6.699 -3.59,12.051 v 43.117 c 0,5.5 -0.23,9.891 -0.67,13.242 -0.44,3.34 -1.66,6.09 -3.65,8.36 -1.97,2.25 -4.98,3.398 -8.97,3.398 -3.23,0 -6.32,-1.039 -9.19,-2.988 -2.96,-2.031 -5.17,-4.731 -6.8,-8.121 v 0"
         style="fill:#ffffff;fill-opacity:1;fill-rule:nonzero;stroke:none"
         id="path108" /><path
         d="m 3203.56,223.719 c -3.61,-1.418 -8.84,-2.848 -15.71,-4.41 -6.86,-1.52 -11.63,-2.618 -14.28,-3.368 -2.64,-0.742 -5.14,-2.121 -7.53,-4.211 -2.42,-2.16 -3.61,-5.082 -3.61,-8.839 0,-3.891 1.41,-7.172 4.23,-9.879 2.82,-2.774 6.51,-4.114 11.07,-4.114 4.85,0 9.35,1.133 13.45,3.364 4.12,2.207 7.14,5.097 9.03,8.57 2.23,3.887 3.35,10.27 3.35,19.227 z m 1.61,-37.129 c -5.96,-4.82 -11.69,-8.43 -17.24,-10.789 -5.53,-2.449 -11.76,-3.641 -18.64,-3.641 -6.33,0 -11.83,1.309 -16.61,3.86 -4.78,2.628 -8.45,6.152 -11.03,10.621 -2.57,4.449 -3.88,9.23 -3.88,14.449 0,7 2.18,12.961 6.42,17.93 4.23,4.89 10.07,8.21 17.5,9.929 1.56,0.371 5.45,1.192 11.62,2.5 6.2,1.352 11.46,2.52 15.91,3.633 4.38,1.059 9.19,2.387 14.34,3.949 -0.32,6.801 -1.61,11.75 -3.91,14.957 -2.32,3.133 -7.14,4.684 -14.36,4.684 -6.25,0 -10.92,-0.863 -14.12,-2.711 -3.13,-1.77 -5.83,-4.531 -8.06,-8.191 -2.27,-3.622 -3.83,-6.008 -4.76,-7.18 -0.95,-1.16 -2.95,-1.692 -5.98,-1.692 -2.79,0 -5.15,0.903 -7.13,2.723 -2.04,1.867 -3.05,4.211 -3.05,7.109 0,4.508 1.55,8.911 4.6,13.122 3.06,4.277 7.82,7.769 14.3,10.558 6.46,2.758 14.54,4.121 24.2,4.121 10.78,0 19.27,-1.363 25.48,-4.031 6.16,-2.602 10.49,-6.77 13.04,-12.59 2.58,-5.719 3.86,-13.398 3.86,-22.879 0,-6 0,-11.16 -0.06,-15.312 -0.06,-4.219 -0.06,-8.879 -0.13,-14.008 0,-4.82 0.76,-9.871 2.3,-15.043 1.49,-5.207 2.26,-8.609 2.26,-10.086 0,-2.621 -1.22,-5.051 -3.56,-7.184 -2.32,-2.136 -5.02,-3.238 -8.01,-3.238 -2.54,0 -4.99,1.211 -7.5,3.68 -2.43,2.469 -5.05,6.09 -7.8,10.75"
         style="fill:#ffffff;fill-opacity:1;fill-rule:nonzero;stroke:none"
         id="path110" /><path
         d="M 3277.15,261.762 V 187.75 c 0,-5.168 -1.18,-9.039 -3.5,-11.672 -2.34,-2.578 -5.29,-3.918 -8.88,-3.918 -3.6,0 -6.56,1.34 -8.78,4.02 -2.26,2.73 -3.38,6.55 -3.38,11.57 v 73.301 c 0,5.008 1.12,8.847 3.38,11.41 2.22,2.59 5.18,3.891 8.78,3.891 3.59,0 6.54,-1.301 8.88,-3.891 2.32,-2.563 3.5,-6.102 3.5,-10.699 z m -12.14,26.519 c -3.39,0 -6.29,1.071 -8.74,3.328 -2.43,2.172 -3.66,5.321 -3.66,9.313 0,3.609 1.26,6.558 3.76,8.976 2.46,2.332 5.37,3.442 8.64,3.442 3.17,0 6.02,-1.031 8.49,-3.149 2.41,-2.121 3.65,-5.261 3.65,-9.269 0,-3.981 -1.19,-7.043 -3.59,-9.25 -2.41,-2.223 -5.25,-3.391 -8.55,-3.391"
         style="fill:#ffffff;fill-opacity:1;fill-rule:nonzero;stroke:none"
         id="path112" /><path
         d="m 3324.85,262.141 v -3.059 c 4.27,5.91 9.02,10.289 14.11,13.047 5.15,2.801 11.02,4.223 17.74,4.223 6.43,0 12.23,-1.473 17.36,-4.461 5.05,-2.911 8.89,-7.032 11.39,-12.422 1.61,-3.149 2.64,-6.571 3.14,-10.16 0.45,-3.618 0.74,-8.239 0.74,-13.899 v -47.66 c 0,-5.168 -1.18,-9.039 -3.39,-11.672 -2.26,-2.578 -5.19,-3.918 -8.76,-3.918 -3.64,0 -6.63,1.34 -8.84,4.031 -2.3,2.719 -3.47,6.539 -3.47,11.559 v 42.672 c 0,8.476 -1.08,14.918 -3.34,19.406 -2.3,4.473 -6.77,6.723 -13.49,6.723 -4.37,0 -8.36,-1.371 -11.97,-4.129 -3.59,-2.672 -6.22,-6.422 -7.9,-11.203 -1.2,-3.789 -1.82,-10.91 -1.82,-21.418 V 187.75 c 0,-5.18 -1.14,-9.102 -3.46,-11.73 -2.32,-2.551 -5.29,-3.86 -8.93,-3.86 -3.53,0 -6.46,1.34 -8.73,4.02 -2.31,2.73 -3.42,6.55 -3.42,11.57 v 74.012 c 0,4.91 1,8.527 3.06,10.949 2.01,2.398 4.86,3.641 8.36,3.641 2.15,0 4.12,-0.59 5.81,-1.622 1.81,-1.05 3.16,-2.691 4.21,-4.738 1.02,-2.191 1.6,-4.762 1.6,-7.851"
         style="fill:#ffffff;fill-opacity:1;fill-rule:nonzero;stroke:none"
         id="path114" /><path
         d="m 3529.15,232.539 h 44.51 c -0.58,8.75 -2.83,15.313 -6.78,19.641 -3.95,4.32 -9.12,6.492 -15.53,6.492 -6.09,0 -11.13,-2.192 -15.03,-6.59 -3.95,-4.391 -6.28,-10.91 -7.17,-19.543 z m 48.05,-14.547 h -48.05 c 0.02,-5.871 1.19,-10.98 3.34,-15.472 2.23,-4.391 5.13,-7.719 8.74,-10 3.63,-2.282 7.66,-3.372 12.03,-3.372 2.92,0 5.63,0.364 8.04,1.051 2.43,0.762 4.78,1.883 7.09,3.403 2.24,1.519 4.32,3.148 6.26,4.957 1.89,1.722 4.45,4.07 7.45,7.089 1.29,1.192 3.09,1.711 5.4,1.711 2.55,0 4.58,-0.711 6.13,-2.16 1.58,-1.449 2.33,-3.457 2.33,-6.07 0,-2.328 -0.86,-5.047 -2.63,-8.168 -1.72,-3.07 -4.29,-6.039 -7.85,-8.93 -3.53,-2.82 -7.93,-5.16 -13.23,-7.09 -5.28,-1.851 -11.35,-2.781 -18.29,-2.781 -15.77,0 -28.03,4.711 -36.76,14.059 -8.73,9.441 -13.11,22.121 -13.11,38.172 0,7.668 1.11,14.64 3.23,21.089 2.16,6.5 5.3,12.04 9.43,16.661 4.15,4.668 9.22,8.238 15.29,10.679 6.08,2.469 12.76,3.711 20.18,3.711 9.52,0 17.76,-2.109 24.64,-6.371 6.86,-4.219 12.01,-9.621 15.41,-16.32 3.44,-6.711 5.13,-13.52 5.13,-20.508 0,-6.391 -1.71,-10.57 -5.29,-12.48 -3.57,-1.934 -8.5,-2.86 -14.91,-2.86"
         style="fill:#ffffff;fill-opacity:1;fill-rule:nonzero;stroke:none"
         id="path118" /><path
         d="m 3706.16,203.891 c 0,-3.18 -0.89,-6.602 -2.75,-10.219 -1.84,-3.641 -4.59,-7.082 -8.36,-10.371 -3.74,-3.281 -8.49,-5.922 -14.2,-7.903 -5.66,-2.046 -12.11,-3.027 -19.21,-3.027 -15.2,0 -27.04,4.617 -35.54,13.809 -8.48,9.269 -12.78,21.609 -12.78,37.129 0,10.5 1.94,19.832 5.87,27.863 3.9,8.047 9.5,14.328 16.89,18.726 7.35,4.43 16.2,6.633 26.46,6.633 6.34,0 12.16,-0.992 17.5,-2.89 5.28,-1.961 9.75,-4.493 13.5,-7.512 3.68,-3.07 6.48,-6.34 8.46,-9.809 1.91,-3.48 2.9,-6.718 2.9,-9.73 0,-3.02 -1.08,-5.602 -3.33,-7.758 -2.17,-2.152 -4.81,-3.211 -7.92,-3.211 -2.06,0 -3.74,0.598 -5.05,1.699 -1.39,1.039 -2.9,2.77 -4.61,5.262 -2.98,4.727 -6.09,8.309 -9.35,10.738 -3.28,2.36 -7.43,3.602 -12.5,3.602 -7.2,0 -13.09,-3.012 -17.5,-8.91 -4.47,-5.961 -6.65,-14.043 -6.65,-24.293 0,-4.801 0.58,-9.289 1.69,-13.321 1.15,-4.027 2.81,-7.437 4.96,-10.316 2.17,-2.852 4.78,-5 7.85,-6.453 3,-1.488 6.37,-2.238 10.05,-2.238 4.9,0 9.14,1.168 12.65,3.57 3.48,2.398 6.62,6.027 9.32,10.859 1.49,2.93 3.08,5.168 4.83,6.84 1.72,1.602 3.84,2.379 6.39,2.379 2.97,0 5.49,-1.16 7.41,-3.508 2.03,-2.441 3.02,-4.949 3.02,-7.64"
         style="fill:#ffffff;fill-opacity:1;fill-rule:nonzero;stroke:none"
         id="path120" /><path
         d="m 3728.96,274.172 h 2.72 v 15.398 c 0,4.102 0.1,7.371 0.31,9.711 0.22,2.34 0.75,4.328 1.77,6.039 0.94,1.719 2.31,3.168 4.14,4.282 1.77,1.078 3.77,1.597 6,1.597 3.11,0 5.93,-1.219 8.44,-3.629 1.64,-1.66 2.74,-3.621 3.2,-5.949 0.44,-2.34 0.66,-5.711 0.66,-10.012 v -17.437 h 9.02 c 3.47,0 6.12,-0.871 7.95,-2.59 1.87,-1.723 2.76,-3.902 2.76,-6.613 0,-3.43 -1.3,-5.887 -3.94,-7.219 -2.59,-1.359 -6.33,-2.07 -11.19,-2.07 h -4.6 v -47.192 c 0,-4.008 0.13,-7.078 0.39,-9.269 0.31,-2.18 1.07,-3.93 2.22,-5.239 1.14,-1.351 3.04,-2.058 5.68,-2.058 1.46,0 3.38,0.258 5.87,0.816 2.41,0.532 4.34,0.801 5.75,0.801 1.97,0 3.78,-0.871 5.34,-2.449 1.57,-1.711 2.39,-3.719 2.39,-6.168 0,-4.133 -2.11,-7.281 -6.47,-9.492 -4.35,-2.168 -10.54,-3.27 -18.61,-3.27 -7.69,0 -13.52,1.34 -17.47,4.031 -3.95,2.719 -6.57,6.391 -7.75,11.219 -1.26,4.742 -1.86,11.078 -1.86,19.051 v 49.219 h -3.29 c -3.46,0 -6.16,0.871 -8.04,2.652 -1.88,1.738 -2.79,3.949 -2.79,6.637 0,2.711 0.98,4.89 2.9,6.613 1.97,1.719 4.8,2.59 8.5,2.59"
         style="fill:#ffffff;fill-opacity:1;fill-rule:nonzero;stroke:none"
         id="path122" /><path
         d="m 3860.04,224.199 c 0,10.403 -2.22,18.563 -6.59,24.371 -4.45,5.801 -10.32,8.75 -17.79,8.75 -4.79,0 -9.01,-1.332 -12.66,-3.918 -3.68,-2.621 -6.5,-6.433 -8.46,-11.523 -1.97,-5.008 -2.97,-10.91 -2.97,-17.68 0,-6.699 1,-12.551 2.95,-17.551 1.93,-4.988 4.7,-8.808 8.32,-11.507 3.62,-2.621 7.88,-3.93 12.82,-3.93 7.47,0 13.34,2.879 17.79,8.738 4.37,5.821 6.59,13.93 6.59,24.25 z m 24.65,0 c 0,-7.609 -1.14,-14.64 -3.44,-21.14 -2.27,-6.379 -5.58,-11.93 -9.87,-16.579 -4.33,-4.64 -9.5,-8.089 -15.47,-10.64 -5.99,-2.469 -12.71,-3.68 -20.25,-3.68 -7.46,0 -14.14,1.211 -20.05,3.762 -5.94,2.48 -11.11,6.058 -15.41,10.719 -4.35,4.691 -7.66,10.16 -9.89,16.507 -2.23,6.383 -3.33,13.372 -3.33,21.094 0,7.758 1.1,14.848 3.33,21.27 2.36,6.468 5.57,11.949 9.83,16.558 4.27,4.532 9.43,8.078 15.47,10.539 6.1,2.461 12.77,3.743 20.05,3.743 7.47,0 14.17,-1.282 20.25,-3.782 6.06,-2.511 11.23,-6.101 15.55,-10.718 4.27,-4.622 7.63,-10.161 9.86,-16.543 2.23,-6.36 3.37,-13.418 3.37,-21.11"
         style="fill:#ffffff;fill-opacity:1;fill-rule:nonzero;stroke:none"
         id="path124" /><path
         d="m 3928.43,209.09 v -21.34 c 0,-5.18 -1.17,-9.102 -3.52,-11.73 -2.34,-2.551 -5.31,-3.86 -8.93,-3.86 -3.5,0 -6.44,1.34 -8.7,3.918 -2.28,2.633 -3.39,6.504 -3.39,11.672 v 71.309 c 0,11.543 3.96,17.293 11.94,17.293 4.03,0 7.01,-1.411 8.82,-4.063 1.78,-2.668 2.72,-6.668 2.98,-11.918 2.92,5.25 5.93,9.25 9.03,11.918 3.1,2.652 7.2,4.063 12.31,4.063 5.22,0 10.2,-1.411 15.08,-4.063 4.83,-2.668 7.29,-6.258 7.29,-10.699 0,-3.11 -1.08,-5.75 -3.14,-7.75 -2.03,-2.012 -4.28,-3.059 -6.7,-3.059 -0.89,0 -3.07,0.598 -6.52,1.778 -3.46,1.14 -6.5,1.742 -9.15,1.742 -3.57,0 -6.5,-0.981 -8.76,-2.992 -2.28,-1.989 -4.06,-4.868 -5.32,-8.739 -1.26,-3.929 -2.17,-8.511 -2.61,-13.898 -0.47,-5.313 -0.71,-11.813 -0.71,-19.582"
         style="fill:#ffffff;fill-opacity:1;fill-rule:nonzero;stroke:none"
         id="path126" /><path
         d="m 4059.2,205.621 c 0,-7.062 -1.65,-13.101 -4.99,-18.152 -3.31,-5.047 -8.17,-8.821 -14.61,-11.457 -6.47,-2.543 -14.29,-3.852 -23.57,-3.852 -8.74,0 -16.34,1.418 -22.65,4.231 -6.29,2.82 -10.96,6.308 -13.93,10.539 -3.01,4.199 -4.57,8.429 -4.57,12.672 0,2.82 1.01,5.25 2.96,7.238 1.91,2.019 4.35,3.012 7.25,3.012 2.59,0 4.59,-0.672 5.95,-1.973 1.41,-1.359 2.67,-3.188 3.97,-5.539 2.52,-4.61 5.51,-8.012 9.07,-10.258 3.44,-2.281 8.25,-3.402 14.35,-3.402 4.89,0 8.93,1.148 12.08,3.461 3.12,2.25 4.75,4.879 4.75,7.808 0,4.531 -1.66,7.84 -4.89,9.86 -3.32,2.113 -8.66,4.07 -16.18,5.941 -8.44,2.219 -15.33,4.512 -20.64,6.898 -5.32,2.403 -9.61,5.614 -12.76,9.551 -3.16,3.91 -4.78,8.789 -4.78,14.551 0,5.141 1.47,9.992 4.41,14.512 2.93,4.609 7.31,8.25 13.03,10.957 5.71,2.722 12.62,4.133 20.74,4.133 6.35,0 12.06,-0.743 17.15,-2.09 5.05,-1.383 9.32,-3.223 12.65,-5.532 3.4,-2.32 6.01,-4.878 7.76,-7.679 1.79,-2.86 2.67,-5.61 2.67,-8.27 0,-2.953 -0.93,-5.312 -2.85,-7.269 -1.89,-1.801 -4.61,-2.774 -8.03,-2.774 -2.54,0 -4.67,0.75 -6.46,2.293 -1.74,1.469 -3.8,3.699 -6.06,6.68 -1.86,2.519 -4.04,4.539 -6.59,6.039 -2.53,1.469 -5.94,2.23 -10.24,2.23 -4.44,0 -8.15,-0.949 -11.05,-2.96 -2.95,-1.961 -4.44,-4.43 -4.44,-7.368 0,-2.683 1.09,-4.89 3.22,-6.632 2.2,-1.719 5.08,-3.129 8.75,-4.278 3.68,-1.133 8.71,-2.523 15.13,-4.14 7.61,-1.911 13.84,-4.243 18.67,-6.942 4.83,-2.668 8.48,-5.832 10.96,-9.512 2.52,-3.699 3.77,-7.859 3.77,-12.527"
         style="fill:#ffffff;fill-opacity:1;fill-rule:nonzero;stroke:none"
         id="path128" /><path
         d="m 4087.06,172.16 c -3.7,0 -6.91,1.211 -9.58,3.762 -2.75,2.48 -4.07,6.008 -4.07,10.476 0,3.801 1.26,7.09 3.81,9.864 2.58,2.738 5.8,4.078 9.57,4.078 3.75,0 6.99,-1.34 9.6,-4.059 2.7,-2.679 4.06,-6.043 4.06,-9.883 0,-4.449 -1.36,-7.937 -4.06,-10.437 -2.61,-2.551 -5.72,-3.801 -9.33,-3.801"
         style="fill:#ffffff;fill-opacity:1;fill-rule:nonzero;stroke:none"
         id="path130" /><path
         d="m 4195.63,224.199 c 0,10.403 -2.21,18.563 -6.62,24.371 -4.4,5.801 -10.3,8.75 -17.73,8.75 -4.81,0 -8.99,-1.332 -12.67,-3.918 -3.67,-2.621 -6.47,-6.433 -8.43,-11.523 -1.96,-5.008 -2.97,-10.91 -2.97,-17.68 0,-6.699 0.94,-12.551 2.88,-17.551 2.01,-4.988 4.77,-8.808 8.42,-11.507 3.59,-2.621 7.87,-3.93 12.77,-3.93 7.43,0 13.33,2.879 17.73,8.738 4.41,5.821 6.62,13.93 6.62,24.25 z m 24.68,0 c 0,-7.609 -1.12,-14.64 -3.44,-21.14 -2.29,-6.379 -5.57,-11.93 -9.89,-16.579 -4.33,-4.64 -9.43,-8.089 -15.47,-10.64 -5.97,-2.469 -12.71,-3.68 -20.23,-3.68 -7.43,0 -14.12,1.211 -20.06,3.762 -5.93,2.48 -11.03,6.058 -15.37,10.719 -4.4,4.691 -7.69,10.16 -9.97,16.507 -2.2,6.383 -3.33,13.372 -3.33,21.094 0,7.758 1.13,14.848 3.42,21.27 2.32,6.468 5.53,11.949 9.77,16.558 4.26,4.532 9.43,8.078 15.48,10.539 6.07,2.461 12.72,3.743 20.06,3.743 7.43,0 14.17,-1.282 20.23,-3.782 6.09,-2.511 11.25,-6.101 15.58,-10.718 4.3,-4.622 7.57,-10.161 9.84,-16.543 2.26,-6.36 3.38,-13.418 3.38,-21.11"
         style="fill:#ffffff;fill-opacity:1;fill-rule:nonzero;stroke:none"
         id="path132" /><path
         d="m 4264.03,209.09 v -21.34 c 0,-5.18 -1.17,-9.102 -3.49,-11.73 -2.34,-2.551 -5.32,-3.86 -8.88,-3.86 -3.61,0 -6.46,1.34 -8.78,3.918 -2.27,2.633 -3.41,6.504 -3.41,11.672 v 71.309 c 0,11.543 4.05,17.293 11.99,17.293 4.08,0 6.99,-1.411 8.78,-4.063 1.77,-2.668 2.83,-6.668 3.02,-11.918 2.9,5.25 5.9,9.25 9,11.918 3.08,2.652 7.22,4.063 12.33,4.063 5.22,0 10.24,-1.411 15.04,-4.063 4.87,-2.668 7.31,-6.258 7.31,-10.699 0,-3.11 -1.04,-5.75 -3.08,-7.75 -2.11,-2.012 -4.3,-3.059 -6.75,-3.059 -0.87,0 -3.03,0.598 -6.49,1.778 -3.44,1.14 -6.49,1.742 -9.16,1.742 -3.57,0 -6.48,-0.981 -8.82,-2.992 -2.24,-1.989 -4.03,-4.868 -5.29,-8.739 -1.24,-3.929 -2.14,-8.511 -2.59,-13.898 -0.47,-5.313 -0.73,-11.813 -0.73,-19.582"
         style="fill:#ffffff;fill-opacity:1;fill-rule:nonzero;stroke:none"
         id="path134" /><path
         d="m 4334.91,225.059 c 0,-10.34 2.18,-18.2 6.55,-23.559 4.32,-5.289 9.98,-7.961 16.81,-7.961 4.06,0 7.96,1.172 11.57,3.461 3.64,2.289 6.6,5.719 8.89,10.301 2.29,4.621 3.41,10.199 3.41,16.738 0,10.449 -2.23,18.59 -6.63,24.402 -4.39,5.86 -10.21,8.789 -17.38,8.789 -6.98,0 -12.63,-2.859 -16.83,-8.398 -4.27,-5.582 -6.39,-13.48 -6.39,-23.773 z m 71.17,32.523 v -74.461 c 0,-8.531 -0.92,-15.84 -2.63,-21.941 -1.74,-6.188 -4.53,-11.231 -8.36,-15.231 -3.83,-4.019 -8.88,-6.961 -15.05,-8.929 -6.21,-1.872 -13.95,-2.872 -23.15,-2.872 -8.5,0 -16.06,1.192 -22.69,3.661 -6.66,2.543 -11.78,5.679 -15.37,9.613 -3.62,3.879 -5.42,7.918 -5.42,12.09 0,3.109 1,5.656 3.09,7.609 2.02,2.008 4.48,2.988 7.35,2.988 3.62,0 6.73,-1.66 9.47,-4.968 1.32,-1.731 2.7,-3.411 4.08,-5.121 1.39,-1.758 2.95,-3.231 4.67,-4.411 1.7,-1.257 3.79,-2.168 6.19,-2.769 2.35,-0.59 5.13,-0.879 8.26,-0.879 6.31,0 11.3,0.93 14.78,2.777 3.52,1.832 5.98,4.391 7.42,7.711 1.36,3.313 2.24,6.84 2.38,10.66 0.3,3.84 0.45,9.871 0.62,18.282 -3.77,-5.481 -8.19,-9.692 -13.1,-12.559 -4.93,-2.871 -10.85,-4.293 -17.63,-4.293 -8.28,0 -15.47,2.141 -21.57,6.57 -6.18,4.371 -10.9,10.481 -14.21,18.403 -3.25,7.847 -4.94,16.957 -4.94,27.289 0,7.738 0.99,14.687 3.05,20.89 1.96,6.149 4.81,11.391 8.57,15.641 3.69,4.27 8.02,7.477 12.86,9.66 4.89,2.117 10.15,3.238 16.02,3.238 6.93,0 12.97,-1.421 18.05,-4.218 5.14,-2.762 9.84,-7.153 14.21,-13.094 v 3.453 c 0,4.469 1.09,7.867 3.15,10.391 2.1,2.406 4.82,3.648 8.09,3.648 4.76,0 7.91,-1.601 9.49,-4.828 1.52,-3.242 2.32,-7.922 2.32,-14"
         style="fill:#ffffff;fill-opacity:1;fill-rule:nonzero;stroke:none"
         id="path136" /><path
         d="m 3219.86,435.77 20.98,-17.801 154.36,198.203 -20.99,17.777 -154.35,-198.179"
         style="fill:#ffffff;fill-opacity:1;fill-rule:nonzero;stroke:none"
         id="path140" /><path
         d="M 22.0547,6592.84 H 6592.8 L 6592.8,0 H 22.0547 v 6592.84"
         style="fill:#70cfd3;fill-opacity:1;fill-rule:evenodd;stroke:none"
         id="path14" /><path
         d="m 1176.47,4932.13 c 377.14,0 684.74,308.63 684.74,687.03 0,378.4 -307.6,687.04 -684.74,687.04 -377.134,0 -684.732,-308.64 -684.732,-687.04 0,-378.4 307.598,-687.03 684.732,-687.03"
         style="fill:#ffffff;fill-opacity:1;fill-rule:evenodd;stroke:none"
         id="path16" /><path
         d="M 607.047,4222.16 2343.6,2665.32 4080.23,1108.52 H 22.0547 v 2589.26 l 584.9923,524.38"
         style="fill:#e7f7fa;fill-opacity:1;fill-rule:evenodd;stroke:none"
         id="path18" /><path
         d="M 607.047,4222.16 2343.6,2665.32 4080.23,1108.52 H 2102.73 L 607.047,4222.16"
         style="fill:#d1f0f3;fill-opacity:1;fill-rule:evenodd;stroke:none"
         id="path20" /><path
         d="m 6119.29,4573.17 473.51,-424.5 V 190.039 H 1230.07 L 3674.68,2381.6 6119.29,4573.17"
         style="fill:#e7f7fa;fill-opacity:1;fill-rule:evenodd;stroke:none"
         id="path22" /><path
         d="m 6119.29,4573.17 473.51,-424.5 v -561.23 z"
         style="fill:#d1f0f3;fill-opacity:1;fill-rule:evenodd;stroke:none"
         id="path24" /><path
         d="M 3307.45,3817.35 5044.04,2260.51 6592.8,872.07 V 703.699 H 3307.45 22.0547 V 872.07 L 1570.85,2260.51 3307.45,3817.35"
         style="fill:#e7f7fa;fill-opacity:1;fill-rule:evenodd;stroke:none"
         id="path26" /><path
         d="M 3307.45,3817.35 5044.04,2260.51 6592.8,872.07 V 703.699 H 4803.17 L 3307.45,3817.35"
         style="fill:#d1f0f3;fill-opacity:1;fill-rule:evenodd;stroke:none"
         id="path28" /><path
         d="M 22.0547,0 H 6592.8 V 703.699 H 22.0547 V 0"
         style="fill:#a7e2e8;fill-opacity:1;fill-rule:evenodd;stroke:none"
         id="path30" /><path
         d="m 255.16,3117.76 87.836,-605.29 -87.836,37.72 100.836,-127.21 74.352,-512.25 33.187,-228.85 -208.375,92.33 229.238,-236.01 63.219,-435.69 -241.426,78.07 262.426,-222.67 36.914,-254.211 H 255.16 22.0547 V 1130.57 L 190.715,1314.4 22.0547,1260.87 v 250.98 l 51.0703,351.79 182.035,147.64 -169.0077,-57.95 89.7027,618.07 79.305,57.81 -73.582,-18.54 73.582,507.09"
         style="fill:#48afb3;fill-opacity:1;fill-rule:evenodd;stroke:none"
         id="path32" /><path
         d="m 694.43,2782.13 75.613,-521.09 -75.613,32.41 86.816,-109.47 63.992,-441.1 28.59,-197 -179.398,79.48 197.383,-203.14 54.437,-375.17 -207.922,67.22 225.973,-191.688 31.75,-218.883 H 694.43 392.73 l 44.395,305.841 201.813,219.94 -178.071,-56.48 76.848,529.42 156.715,127.08 -145.547,-49.92 77.265,532.17 68.282,49.77 -63.367,-15.95 63.367,436.56"
         style="fill:#48afb3;fill-opacity:1;fill-rule:evenodd;stroke:none"
         id="path34" /><path
         d="m 1044.8,3117.76 87.84,-605.29 -87.84,37.69 100.8,-127.18 74.39,-512.25 33.22,-228.85 -208.41,92.33 229.24,-236.01 63.25,-435.69 -241.49,78.04 262.46,-222.64 36.92,-254.211 H 1044.8 694.43 l 51.554,355.221 234.332,255.48 -206.796,-65.61 89.246,614.88 182.034,147.61 -169.003,-57.95 89.699,618.07 79.304,57.81 -73.612,-18.54 73.612,507.09"
         style="fill:#48afb3;fill-opacity:1;fill-rule:evenodd;stroke:none"
         id="path36" /><path
         d="m 1342.53,2381.6 61.07,-420.68 -61.07,26.16 70.1,-88.4 51.67,-356.06 23.1,-159.03 -144.87,64.17 159.35,-164.03 43.96,-302.851 -167.84,54.271 182.42,-154.752 25.64,-176.699 h -243.53 -243.5 l 35.82,246.91 162.9,177.541 -143.76,-45.59 62.03,427.39 126.51,102.63 -117.49,-40.32 62.38,429.61 55.11,40.18 -51.17,-12.93 51.17,352.48"
         style="fill:#48afb3;fill-opacity:1;fill-rule:evenodd;stroke:none"
         id="path38" /><path
         d="m 6123.02,2381.6 61.07,-420.68 -61.07,26.16 70.1,-88.4 51.67,-356.06 23.1,-159.03 -144.87,64.17 159.34,-164.03 43.97,-302.851 -167.84,54.271 182.42,-154.752 25.63,-176.699 h -243.52 -243.54 l 35.86,246.91 162.89,177.541 -143.75,-45.59 62.02,427.39 126.52,102.63 -117.45,-40.32 62.34,429.61 55.11,40.14 -51.14,-12.89 51.14,352.48"
         style="fill:#48afb3;fill-opacity:1;fill-rule:evenodd;stroke:none"
         id="path40" /><path
         d="m 6453.06,2960.76 82.15,-565.91 -82.15,35.22 94.29,-118.91 45.45,-313.23 v -355.25 l -139.74,61.92 139.74,-143.85 v -440.92 l -92.02,29.7 92.02,-78.03 V 703.699 h -139.74 -327.59 l 48.22,332.111 219.13,238.83 -193.39,-61.33 83.46,574.92 170.17,138.06 -157.98,-54.23 83.87,577.89 74.11,54.02 -68.81,-17.35 68.81,474.14"
         style="fill:#48afb3;fill-opacity:1;fill-rule:evenodd;stroke:none"
         id="path42" /><path
         d="m 5730.42,3382.93 97.5,-671.75 -97.5,41.84 111.9,-141.15 82.53,-568.56 36.85,-254 -231.28,102.49 254.42,-261.87 70.21,-483.63 -268.01,86.65 291.3,-247.079 40.95,-282.172 h -388.87 -388.87 l 57.22,394.241 260.15,283.54 -229.56,-72.84 99.04,682.49 202.02,163.8 -187.58,-64.34 99.57,685.96 88.01,64.17 -81.69,-20.58 81.69,562.79"
         style="fill:#48afb3;fill-opacity:1;fill-rule:evenodd;stroke:none"
         id="path44" /><path
         d="m 5169.14,2960.76 82.12,-565.91 -82.12,35.22 94.27,-118.91 69.51,-478.93 31.04,-213.96 -194.82,86.33 214.32,-220.63 59.14,-407.41 -225.76,72.97 245.4,-208.12 34.48,-237.711 h -327.58 -327.62 l 48.23,332.111 219.13,238.83 -193.38,-61.33 83.45,574.92 170.19,138.02 -158.01,-54.19 83.87,577.86 74.14,54.05 -68.84,-17.35 68.84,474.14"
         style="fill:#48afb3;fill-opacity:1;fill-rule:evenodd;stroke:none"
         id="path46" /><path
         d="m 4874.69,2202.98 54.54,-375.95 -54.54,23.43 62.58,-78.99 46.19,-318.13 20.64,-142.14 -129.41,57.36 142.34,-146.6 39.3,-270.581 -149.96,48.473 163,-138.25 22.9,-157.903 h -217.58 -217.62 l 32.03,220.602 145.55,158.639 -128.45,-40.74 55.42,381.91 113.07,91.67 -104.98,-35.99 55.7,383.85 49.28,35.88 -45.73,-11.52 45.73,314.98"
         style="fill:#48afb3;fill-opacity:1;fill-rule:evenodd;stroke:none"
         id="path48" /><path
         d="m 6592.8,4323.71 -106.41,-26.78 106.41,733.15 z m 0,-1221.27 v 1202.84 l -117.62,-85.72 -176.8,-1218.12 294.42,101 z m 0,-2563.881 h -651.85 l 101.6,700.151 461.88,503.47 -407.58,-129.29 175.88,1211.85 320.07,259.62 v -2545.801 0"
         style="fill:#2d666d;fill-opacity:1;fill-rule:evenodd;stroke:none"
         id="path50" /><path
         d="m 5397.82,3538.69 106.42,-733.17 -106.42,45.66 122.15,-154.04 90.09,-620.53 40.21,-277.18 -252.45,111.82 277.71,-285.85 76.6,-527.77 -292.49,94.54 317.88,-269.658 44.71,-307.992 h -424.41 -424.41 l 62.45,430.32 283.89,309.46 -250.49,-79.48 108.1,744.82 220.46,178.81 -204.72,-70.21 108.66,748.65 96.06,70 -89.14,-22.44 89.14,614.24"
         style="fill:#2d666d;fill-opacity:1;fill-rule:evenodd;stroke:none"
         id="path52" /><path
         d="m 4336.69,2381.6 64.35,-443.05 -64.35,27.57 73.83,-93.08 54.43,-374.95 24.31,-167.54 -152.57,67.58 167.81,-172.73 46.29,-318.939 -176.73,57.148 192.11,-162.968 27.01,-186.121 h -256.49 -256.46 l 37.72,260.05 171.57,186.99 -151.38,-48.01 65.34,450.08 133.21,108.07 -123.7,-42.43 65.68,452.44 58.02,42.29 -53.88,-13.56 53.88,371.16"
         style="fill:#2d666d;fill-opacity:1;fill-rule:evenodd;stroke:none"
         id="path54" /><path
         d="m 450.469,3627.97 112.953,-778.15 -112.953,48.43 129.597,-163.46 95.61,-658.61 42.703,-294.2 -267.91,118.71 294.746,-303.42 81.269,-560.16 -310.406,100.38 337.379,-286.209 47.449,-326.91 H 450.469 0 l 66.3086,456.731 301.2734,328.448 -265.867,-84.36 114.738,790.52 234.016,189.79 -217.293,-74.52 115.336,794.59 101.957,74.29 -94.614,-23.85 94.614,651.96"
         style="fill:#2d666d;fill-opacity:1;fill-rule:evenodd;stroke:none"
         id="path56" /><path
         d="m 1697.96,2665.32 75.93,-523.07 -75.93,32.56 87.14,-109.89 64.27,-442.72 28.69,-197.76 -180.1,79.79 198.12,-203.95 54.65,-376.538 -208.66,67.457 226.78,-192.39 31.89,-219.719 h -302.78 -302.78 l 44.53,306.969 202.58,220.771 -178.77,-56.69 77.13,531.4 157.31,127.59 -146.07,-50.11 77.55,534.16 68.52,49.91 -63.6,-16.02 63.6,438.25"
         style="fill:#2d666d;fill-opacity:1;fill-rule:evenodd;stroke:none"
         id="path58" /><path
         d="m 1088.7,351.852 h 175.5 V 6592.84 H 1088.7 V 351.852"
         style="fill:#2d666d;fill-opacity:1;fill-rule:evenodd;stroke:none"
         id="path60" /><path
         d="m 1088.7,5289.4 -620.177,933.71 11.696,6.27 649.161,-858.79 -40.68,-81.19"
         style="fill:#2d666d;fill-opacity:1;fill-rule:evenodd;stroke:none"
         id="path62" /><path
         d="m 1162.81,4158.22 510.67,768.76 -9.7,5.17 -534.4,-707.07 33.43,-66.86"
         style="fill:#2d666d;fill-opacity:1;fill-rule:evenodd;stroke:none"
         id="path64" /><path
         d="m 4653.97,190.039 h 222.26 V 6592.84 H 4653.97 V 190.039"
         style="fill:#d1f0f3;fill-opacity:1;fill-rule:evenodd;stroke:none"
         id="path66" /><path
         d="m 5919.41,190.039 h 222.25 V 6592.84 H 5919.41 V 190.039"
         style="fill:#d1f0f3;fill-opacity:1;fill-rule:evenodd;stroke:none"
         id="path68" /><path
         d="m 4693.95,190.039 h 222.21 V 6592.84 H 4693.95 V 190.039"
         style="fill:#2d666d;fill-opacity:1;fill-rule:evenodd;stroke:none"
         id="path70" /><path
         d="m 4800.89,4462.15 -620.22,933.71 11.74,6.27 649.11,-858.8 -40.63,-81.18"
         style="fill:#2d666d;fill-opacity:1;fill-rule:evenodd;stroke:none"
         id="path72" /><path
         d="m 4794.18,5458.13 620.21,933.71 -11.72,6.27 -649.13,-858.8 40.64,-81.18"
         style="fill:#2d666d;fill-opacity:1;fill-rule:evenodd;stroke:none"
         id="path74" /><path
         d="m 3911.44,1714.82 37.02,-254.88 -37.02,15.87 42.46,-53.55 31.32,-215.68 13.95,-96.38 -87.73,38.88 96.55,-99.36 26.62,-183.478 -101.68,32.867 110.49,-93.769 15.56,-107.051 h -147.54 -147.51 l 21.7,149.621 98.69,107.539 -87.1,-27.609 37.57,258.93 76.65,62.16 -71.17,-24.44 37.8,260.25 33.37,24.37 -30.98,-7.8 30.98,213.51"
         style="fill:#48afb3;fill-opacity:1;fill-rule:evenodd;stroke:none"
         id="path76" /><path
         d="m 3478.04,1893.45 43.3,-298.32 -43.3,18.57 49.69,-62.65 36.64,-252.49 16.36,-112.78 -102.69,45.52 112.98,-116.33 31.15,-214.72 -118.99,38.449 129.35,-109.719 18.19,-125.281 h -172.68 -172.66 l 25.39,175.043 115.51,125.918 -101.92,-32.34 43.97,303.05 89.71,72.75 -83.31,-28.56 44.24,304.61 39.07,28.49 -36.25,-9.13 36.25,249.92"
         style="fill:#48afb3;fill-opacity:1;fill-rule:evenodd;stroke:none"
         id="path78" /><path
         d="m 2209.4,1714.82 36.99,-254.88 -36.99,15.87 42.47,-53.55 31.32,-215.68 13.98,-96.38 -87.77,38.88 96.55,-99.36 26.62,-183.478 -101.67,32.867 110.53,-93.769 15.52,-107.051 H 2209.4 2061.86 l 21.7,149.621 98.69,107.539 -87.06,-27.609 37.57,258.93 76.64,62.16 -71.15,-24.44 37.75,260.25 33.4,24.37 -30.98,-7.8 30.98,213.51"
         style="fill:#48afb3;fill-opacity:1;fill-rule:evenodd;stroke:none"
         id="path80" /><path
         d="M 5959.35,190.039 H 6181.6 V 6592.84 H 5959.35 V 190.039"
         style="fill:#2d666d;fill-opacity:1;fill-rule:evenodd;stroke:none"
         id="path82" /><path
         d="m 6020.21,4679.18 -620.21,933.71 11.73,6.27 649.12,-858.78 -40.64,-81.2"
         style="fill:#2d666d;fill-opacity:1;fill-rule:evenodd;stroke:none"
         id="path84" /><path
         d="M 6181.6,190.039 6396.23,0 h -325.76 l -111.12,190.039 z m -1487.65,0 L 4761.59,0 h 315.57 l -161,190.039 h -222.21 v 0"
         style="fill:#48afb3;fill-opacity:1;fill-rule:evenodd;stroke:none"
         id="path86" /><path
         d="M 1264.2,351.852 1338.77,0 h -329.44 l 79.37,351.852 h 175.5"
         style="fill:#48afb3;fill-opacity:1;fill-rule:evenodd;stroke:none"
         id="path88" /><path
         d="m 2816.83,4319.22 c 14.89,0 26.97,-12.14 26.97,-27.08 0,-14.94 -12.08,-27.06 -26.97,-27.06 -14.89,0 -26.97,12.12 -26.97,27.06 0,14.94 12.08,27.08 26.97,27.08 z m 318.31,497.96 c 14.89,0 26.97,-12.12 26.97,-27.05 0,-14.95 -12.08,-27.08 -26.97,-27.08 -14.93,0 -27.01,12.13 -27.01,27.08 0,14.93 12.08,27.05 27.01,27.05 z m 779.53,-1028.44 c 40.21,0 72.84,-32.7 72.84,-73.07 0,-40.37 -32.63,-73.07 -72.84,-73.07 -40.26,0 -72.84,32.7 -72.84,73.07 0,40.37 32.58,73.07 72.84,73.07 z m -102.52,676.6 c 16.39,0 29.68,-13.33 29.68,-29.77 0,-16.41 -13.29,-29.76 -29.68,-29.76 -16.41,0 -29.68,13.35 -29.68,29.76 0,16.44 13.27,29.77 29.68,29.77 z m -86.3,606.25 c 16.37,0 29.65,-13.33 29.65,-29.76 0,-16.44 -13.28,-29.78 -29.65,-29.78 -16.4,0 -29.68,13.34 -29.68,29.78 0,16.43 13.28,29.76 29.68,29.76 z M 5498.03,4703.5 c 14.88,0 26.97,-12.12 26.97,-27.06 0,-14.94 -12.09,-27.06 -26.97,-27.06 -14.93,0 -27.01,12.12 -27.01,27.06 0,14.94 12.08,27.06 27.01,27.06 z m -584.05,-487.13 c 20.86,0 37.76,-16.97 37.76,-37.9 0,-20.93 -16.9,-37.9 -37.76,-37.9 -20.83,0 -37.75,16.97 -37.75,37.9 0,20.93 16.92,37.9 37.75,37.9 z m 244.17,-178.63 c 14.9,0 26.98,-12.12 26.98,-27.07 0,-14.94 -12.08,-27.06 -26.98,-27.06 -14.93,0 -26.98,12.12 -26.98,27.06 0,14.95 12.05,27.07 26.98,27.07 z M 1527.51,3761.68 c 35.76,0 64.73,-29.08 64.73,-64.94 0,-35.86 -28.97,-64.94 -64.73,-64.94 -35.75,0 -64.73,29.08 -64.73,64.94 0,35.86 28.98,64.94 64.73,64.94 z m -728.28,454.69 c 14.891,0 26.969,-12.14 26.969,-27.08 0,-14.95 -12.078,-27.07 -26.969,-27.07 -14.894,0 -26.972,12.12 -26.972,27.07 0,14.94 12.078,27.08 26.972,27.08 z m 404.6,546.68 c 35.75,0 64.73,-29.08 64.73,-64.94 0,-35.86 -28.98,-64.94 -64.73,-64.94 -35.75,0 -64.73,29.08 -64.73,64.94 0,35.86 28.98,64.94 64.73,64.94 z m 857.78,308.54 c 14.89,0 26.97,-12.13 26.97,-27.08 0,-14.94 -12.08,-27.06 -26.97,-27.06 -14.89,0 -26.98,12.12 -26.98,27.06 0,14.95 12.09,27.08 26.98,27.08 z m 396.49,519.65 c 16.4,0 29.68,-13.35 29.68,-29.77 0,-16.45 -13.28,-29.78 -29.68,-29.78 -16.37,0 -29.64,13.33 -29.64,29.78 0,16.42 13.27,29.77 29.64,29.77 z m 542.21,395.12 c 14.89,0 26.97,12.12 26.97,27.06 0,14.94 -12.08,27.08 -26.97,27.08 -14.93,0 -26.98,-12.14 -26.98,-27.08 0,-14.94 12.05,-27.06 26.98,-27.06 z m 652.74,-162.39 c 14.92,0 27,-12.11 27,-27.06 0,-14.95 -12.08,-27.06 -27,-27.06 -14.9,0 -26.98,12.11 -26.98,27.06 0,14.95 12.08,27.06 26.98,27.06 z m -490.94,-449.26 c 14.9,0 26.98,-12.11 26.98,-27.06 0,-14.94 -12.08,-27.06 -26.98,-27.06 -14.92,0 -26.97,12.12 -26.97,27.06 0,14.95 12.05,27.06 26.97,27.06 z m 1408.04,216.53 c 14.88,0 26.97,-12.14 26.97,-27.08 0,-14.94 -12.09,-27.06 -26.97,-27.06 -14.94,0 -26.99,12.12 -26.99,27.06 0,14.94 12.05,27.08 26.99,27.08 z m 274.4,232.73 c 17.49,0 31.68,-14.22 31.68,-31.76 0,-17.55 -14.19,-31.77 -31.68,-31.77 -17.49,0 -31.68,14.22 -31.68,31.77 0,17.54 14.19,31.76 31.68,31.76 z m 351.32,-232.73 c 35.75,0 64.73,-29.08 64.73,-64.96 0,-35.86 -28.98,-64.94 -64.73,-64.94 -35.71,0 -64.7,29.08 -64.7,64.94 0,35.88 28.99,64.96 64.7,64.96 z m 393.82,395.12 c 35.76,0 64.73,-29.08 64.73,-64.94 0,-35.86 -28.97,-64.94 -64.73,-64.94 -35.72,0 -64.69,29.08 -64.69,64.94 0,35.86 28.97,64.94 64.69,64.94 z m 407.41,-492.58 c 20.87,0 37.79,-16.97 37.79,-37.9 0,-20.92 -16.92,-37.88 -37.79,-37.88 -20.82,0 -37.75,16.96 -37.75,37.88 0,20.93 16.93,37.9 37.75,37.9 z m 176.24,497.97 c 17.49,0 31.65,-14.22 31.65,-31.77 0,-17.54 -14.16,-31.77 -31.65,-31.77 -17.49,0 -31.68,14.23 -31.68,31.77 0,17.55 14.19,31.77 31.68,31.77 z m 16.87,-1602.18 c 26.82,0 48.57,-21.81 48.57,-48.72 0,-26.9 -21.75,-48.71 -48.57,-48.71 -26.8,0 -48.55,21.81 -48.55,48.71 0,26.91 21.75,48.72 48.55,48.72 z M 1907.88,6446.43 c 35.76,0 64.7,-29.07 64.7,-64.93 0,-35.86 -28.94,-64.95 -64.7,-64.95 -35.75,0 -64.73,29.09 -64.73,64.95 0,35.86 28.98,64.93 64.73,64.93 z m -1041.181,0 c 10.43,0 18.86,-8.46 18.86,-18.94 0,-10.45 -8.43,-18.93 -18.86,-18.93 -10.429,0 -18.863,8.48 -18.863,18.93 0,10.48 8.434,18.94 18.863,18.94 z M 572.695,4852.37 c 35.75,0 64.692,-29.09 64.692,-64.95 0,-35.87 -28.942,-64.95 -64.692,-64.95 -35.757,0 -64.765,29.08 -64.765,64.95 0,35.86 29.008,64.95 64.765,64.95 z M 2282.77,3788.74 c 14.89,0 26.98,-12.12 26.98,-27.06 0,-14.94 -12.09,-27.06 -26.98,-27.06 -14.89,0 -26.97,12.12 -26.97,27.06 0,14.94 12.08,27.06 26.97,27.06 v 0"
         style="fill:#ffffff;fill-opacity:1;fill-rule:evenodd;stroke:none"
         id="path90" /></g></g></svg>
